<svg xmlns="http://www.w3.org/2000/svg" xmlns:xlink="http://www.w3.org/1999/xlink" width="142.9" height="227.08" viewBox="0 0 142.9 227.08">
  <defs>
    <clipPath id="clip-path">
      <rect id="Rectangle_381" data-name="Rectangle 381" width="142.9" height="227.08" fill="none"/>
    </clipPath>
  </defs>
  <g id="Group_277" data-name="Group 277" transform="translate(8 284)">
    <rect id="Rectangle_398" data-name="Rectangle 398" width="0.62" height="146.267" transform="translate(134.28 -284)" fill="#302d2c"/>
    <rect id="Rectangle_399" data-name="Rectangle 399" width="0.62" height="178.971" transform="translate(25.423 -284)" fill="#302d2c"/>
    <rect id="Rectangle_400" data-name="Rectangle 400" width="0.62" height="227.077" transform="translate(79.851 -284)" fill="#302d2c"/>
    <g id="Group_276" data-name="Group 276">
      <g id="Group_275" data-name="Group 275" transform="translate(-8 -284)">
        <g id="Group_256" data-name="Group 256" clip-path="url(#clip-path)">
          <path id="Path_110" data-name="Path 110" d="M120.348,13.125a.722.722,0,0,1-.791-.505.98.98,0,0,1,.3-1.05,4.644,4.644,0,0,0,1.1-2.114,9.565,9.565,0,0,0,.259-2.9.351.351,0,0,1,.574-.056,16.166,16.166,0,0,1,.463,3.192,5.228,5.228,0,0,1-.4,2.441,1.658,1.658,0,0,1-1.514,1m3.3,11.782c-.38,0-.572-.155-.572-.464,0-.073.008-.34.027-.8s.037-1.064.054-1.8.037-1.545.056-2.427.036-1.782.055-2.7.027-1.778.027-2.577V1.887A2.665,2.665,0,0,0,123.1.606a.293.293,0,0,1,0-.3.375.375,0,0,1,.273-.055c.29.055.685.136,1.186.246s.9.209,1.214.3a.319.319,0,0,1,.218.327.331.331,0,0,1-.3.3,3.131,3.131,0,0,0-.587.109c-.191.054-.286.219-.286.491V14.161q0,1.636.027,3.355t.068,3.191q.042,1.473.068,2.427c.018.637.027,1.009.027,1.12,0,.145-.14.29-.423.436a2.031,2.031,0,0,1-.942.218m3.983-14.892a.85.85,0,0,1-.5-.04c-.155-.064-.269-.25-.341-.559a11.635,11.635,0,0,0-.532-1.978,4.956,4.956,0,0,0-1.105-1.786q0-.436.382-.436a8.052,8.052,0,0,1,1.747,1.3,3.519,3.519,0,0,1,.981,1.541.656.656,0,0,1,.067.2,1.1,1.1,0,0,0,.041.178h3.928c-.037-.109-.065-.2-.082-.273A9.588,9.588,0,0,0,131.68,6.4a5.488,5.488,0,0,0-.968-1.6.539.539,0,0,1,.054-.246h-1.309a9.3,9.3,0,0,0-1.472.137l-.219-1.173a9.41,9.41,0,0,0,1.664.219h4.991V1.887a2.865,2.865,0,0,0-.191-1.282.2.2,0,0,1,0-.3A.311.311,0,0,1,134.5.251L135.24.4c.309.064.622.133.942.205s.576.137.777.191q.271.082.218.327c0,.164-.1.264-.3.3a3.135,3.135,0,0,0-.558.109c-.192.054-.286.219-.286.491V3.742h4.418a.417.417,0,0,0,.3-.137c.092-.091.246-.25.464-.478s.363-.377.436-.45a.36.36,0,0,1,.518,0,5.255,5.255,0,0,1,.451.327l.627.49c.21.165.35.283.423.355a.446.446,0,0,1,.165.45.286.286,0,0,1-.3.259h-4.637q.382.165.778.342c.264.119.477.213.64.286a.287.287,0,0,1,.191.354q-.055.3-.327.246h-.027a1.089,1.089,0,0,0-.45-.013c-.1.027-.214.141-.341.342a14.677,14.677,0,0,1-.818,1.227,11.921,11.921,0,0,1-.9,1.091h3.654a.405.405,0,0,0,.3-.109c.091-.091.246-.25.464-.478s.363-.378.436-.451a.379.379,0,0,1,.246-.136.54.54,0,0,1,.273.109q.135.109.45.355c.209.163.417.323.628.477a4.537,4.537,0,0,1,.422.342.456.456,0,0,1,.164.463c-.036.183-.127.272-.273.272H128.312a.9.9,0,0,1-.682.737m-1.174,14.074-.218-1.2a9.5,9.5,0,0,0,1.664.218h6.518v-2.4h-5.127a9.03,9.03,0,0,0-1.446.138l-.218-1.174a9.409,9.409,0,0,0,1.664.219h5.127V17.516h-3.846v.409q0,.246-.4.437a1.784,1.784,0,0,1-.777.191.792.792,0,0,1-.409-.1.419.419,0,0,1-.164-.395c0-.109.014-.46.041-1.05s.049-1.309.067-2.155.027-1.694.027-2.551a11.841,11.841,0,0,0-.054-1.186,2.091,2.091,0,0,0-.164-.723.23.23,0,0,1,.055-.3.259.259,0,0,1,.3-.027q.3.163.859.477t.886.505h8.428a.406.406,0,0,0,.3-.11l.846-.845c.145-.182.326-.192.545-.027.145.109.382.3.709.585s.583.515.764.7c.218.2.2.373-.055.518-.127.073-.246.137-.354.192l-.328.164a.435.435,0,0,0-.272.409q0,.981.054,2.072t.109,1.924c.036.554.055.9.055,1.05q0,.272-.436.451a2.232,2.232,0,0,1-.845.177q-.491,0-.491-.409v-.382h-3.846v2.373h4.009a.407.407,0,0,0,.3-.109q.135-.165.423-.478c.19-.21.322-.36.395-.45a.347.347,0,0,1,.518-.028q.247.192.641.558t.668.641a.442.442,0,0,1,.15.45.3.3,0,0,1-.313.232h-6.792v2.4h5.536a.405.405,0,0,0,.3-.109c.091-.091.254-.264.491-.518s.4-.437.491-.546a.33.33,0,0,1,.491,0,3.024,3.024,0,0,1,.477.369l.573.518a3.865,3.865,0,0,1,.4.4.476.476,0,0,1,.176.477.333.333,0,0,1-.368.232H127.93a7.459,7.459,0,0,0-1.473.164m4.119-10.255h3.845V11.9h-3.845Zm0,2.863h3.845V14.652h-3.845Zm3-8.264h3.191q.247-.681.532-1.637a9.5,9.5,0,0,0,.368-1.746V4.56h-6.246a7.07,7.07,0,0,1,1.445,1.01,3.288,3.288,0,0,1,.9,1.336,1.753,1.753,0,0,1,.1.873,1.285,1.285,0,0,1-.287.655m2.455,5.4h3.846V11.9h-3.846Zm0,2.863h3.846V14.652h-3.846Z" transform="translate(-12.03 -0.025)" fill="#1a1311"/>
          <path id="Path_111" data-name="Path 111" d="M120.26,51.006a.651.651,0,0,1-.629-.205.9.9,0,0,1-.191-.668,1.293,1.293,0,0,1,.328-.764,5.583,5.583,0,0,0,1.063-2.237,14.465,14.465,0,0,0,.437-3.246.382.382,0,0,1,.572-.028,23.591,23.591,0,0,1,.3,3.519,6.278,6.278,0,0,1-.422,2.51,1.813,1.813,0,0,1-1.459,1.118m3.19,11.782q-.545,0-.545-.463c0-.073.009-.351.027-.832s.041-1.105.068-1.868.055-1.614.082-2.551.05-1.9.067-2.891.028-1.933.028-2.823V39.769a2.883,2.883,0,0,0-.191-1.282.232.232,0,0,1,0-.3.311.311,0,0,1,.273-.055q.407.082,1.159.246t1.185.3q.273.081.219.326a.289.289,0,0,1-.273.3,3.126,3.126,0,0,0-.585.109c-.192.055-.286.219-.286.491V51.388q0,1.746.027,3.56t.04,3.382q.014,1.569.041,2.592c.017.682.027,1.076.027,1.186,0,.146-.132.3-.395.45a1.89,1.89,0,0,1-.969.232m4.391-15.574a.617.617,0,0,1-.45.041c-.119-.046-.214-.186-.287-.424a9.522,9.522,0,0,0-.845-1.95,5.857,5.857,0,0,0-1.363-1.677c-.055-.273.045-.427.3-.464a8.087,8.087,0,0,1,1.854.927,3.665,3.665,0,0,1,1.282,1.5,1.521,1.521,0,0,1,.137,1.323,1.18,1.18,0,0,1-.628.723m-1.882,15.329a.388.388,0,0,1-.3-.491,19.446,19.446,0,0,0,2.032-1.446A26.5,26.5,0,0,0,129.7,58.82a12.686,12.686,0,0,0,1.554-1.813,1.745,1.745,0,0,0,.328-.669c.017-.153.063-.249.136-.286a.174.174,0,0,1,.272.055q.353.274.9.764l.818.737a.313.313,0,0,1,.027.409c-.092.146-.228.173-.409.081a.918.918,0,0,0-.423-.136.668.668,0,0,0-.423.246,19.09,19.09,0,0,1-2.019,1.69,23.968,23.968,0,0,1-2.291,1.487q-1.174.668-2.21,1.159m.628-13.884-.218-1.172a9.493,9.493,0,0,0,1.663.218h6.874V45.742h-3.273v.627c0,.129-.109.264-.327.41a1.55,1.55,0,0,1-.873.219c-.381,0-.573-.138-.573-.409q0-.192.041-1.091t.082-2.21q.04-1.31.04-2.728,0-.927-.04-1.309a2.458,2.458,0,0,0-.15-.654.185.185,0,0,1,.027-.273.254.254,0,0,1,.3-.027q.3.163.859.5l.914.558h7.228a.361.361,0,0,0,.3-.136c.091-.09.2-.209.326-.354s.255-.282.382-.409c.092-.11.174-.164.246-.164a.6.6,0,0,1,.3.136q.246.192.75.614t.722.641c.237.218.192.409-.136.572-.092.037-.187.077-.286.123s-.205.1-.314.15a.413.413,0,0,0-.165.137.743.743,0,0,0-.054.354c0,.4.01.863.027,1.39s.031,1.046.041,1.555.023.945.041,1.309.027.6.027.71q0,.136-.369.38a1.6,1.6,0,0,1-.914.246c-.345,0-.518-.145-.518-.436v-.437h-3.082v1.964h4.746a.407.407,0,0,0,.3-.109c.09-.091.255-.264.491-.518s.4-.437.491-.546a.344.344,0,0,1,.491-.027,5.828,5.828,0,0,1,.477.395c.192.174.382.341.574.505a3.3,3.3,0,0,1,.395.381.5.5,0,0,1,.177.49.335.335,0,0,1-.368.246h-16.2a9.783,9.783,0,0,0-1.472.136m7.61,14.129a3.282,3.282,0,0,0-.819-1.5,3.328,3.328,0,0,0-1.745-.6c-.165-.236-.137-.418.082-.545.145,0,.372.013.682.04s.641.049,1,.068.659.027.914.027a.8.8,0,0,0,.532-.136.611.611,0,0,0,.15-.464V54.716h-3.355v.545c0,.128-.123.268-.369.423a1.527,1.527,0,0,1-.832.232c-.381,0-.573-.137-.573-.409,0-.109.014-.409.041-.9s.055-1.068.082-1.732.04-1.3.04-1.9a6.9,6.9,0,0,0-.055-1.05,1.915,1.915,0,0,0-.163-.531c-.037-.128-.019-.219.054-.273a.216.216,0,0,1,.3-.027q.272.136.832.478l.914.558h7.419a.418.418,0,0,0,.3-.136c.09-.091.2-.205.327-.341s.237-.259.326-.369a.354.354,0,0,1,.547-.028q.271.192.75.587t.722.613q.328.326-.137.573a1.829,1.829,0,0,1-.272.136,1.8,1.8,0,0,0-.273.138.316.316,0,0,0-.178.136.971.971,0,0,0-.04.355q0,.6.04,1.3t.069,1.227c.017.355.027.578.027.668,0,.128-.128.264-.382.41a1.782,1.782,0,0,1-.9.218c-.345,0-.518-.145-.518-.437v-.462h-3.164v1.5q0,1.336.028,2.222c.017.592.027,1.032.027,1.323a3.217,3.217,0,0,1-.478,1.827,3.7,3.7,0,0,1-1.95,1.2M131.633,42.06h7.937V40.177h-7.937Zm0,2.836h7.937V42.878h-7.937Zm0,9h8.1V50.952h-8.1Zm11.619,7.964a.528.528,0,0,1-.381.068c-.127-.027-.255-.16-.382-.4a14.435,14.435,0,0,0-1.923-2.768,15.656,15.656,0,0,0-2.686-2.414.39.39,0,0,1,.068-.3.383.383,0,0,1,.259-.164,29.788,29.788,0,0,1,3.11,1.6,6.366,6.366,0,0,1,2.181,1.95,2.05,2.05,0,0,1,.341,1.433,1.132,1.132,0,0,1-.586.995" transform="translate(-12.023 -3.838)" fill="#1a1311"/>
          <path id="Path_112" data-name="Path 112" d="M131.214,99.018a.456.456,0,0,1-.205-.354.438.438,0,0,1,.123-.355,17.192,17.192,0,0,0,3.4-.982,12.54,12.54,0,0,0,3.123-1.8,8.652,8.652,0,0,0,2.277-2.713,7.617,7.617,0,0,0,.859-3.668,9.692,9.692,0,0,0-1.009-4.583,7.238,7.238,0,0,0-2.8-2.946,8.353,8.353,0,0,0-4.159-1.063v1.692a19.963,19.963,0,0,1-.451,4.254,24.1,24.1,0,0,1-1.173,3.873,18.371,18.371,0,0,1-1.609,3.164,10.216,10.216,0,0,1-1.76,2.128,2.553,2.553,0,0,1-1.609.764,3.352,3.352,0,0,1-2.509-1.146,5.924,5.924,0,0,1-1.2-2.114,9.892,9.892,0,0,1-.464-3.259,9.333,9.333,0,0,1,.764-3.627A11.474,11.474,0,0,1,125,82.913a11.04,11.04,0,0,1,3.368-2.483,9.882,9.882,0,0,1,4.35-.941,11.229,11.229,0,0,1,4.037.709,9.78,9.78,0,0,1,3.232,2.006,9.055,9.055,0,0,1,2.14,3.1,10.1,10.1,0,0,1,.764,3.982,8.133,8.133,0,0,1-1.023,4.159,9.378,9.378,0,0,1-2.713,2.96,13.186,13.186,0,0,1-3.765,1.841,18.054,18.054,0,0,1-4.173.777M126.141,94a2.191,2.191,0,0,0,1.391-.7,8.673,8.673,0,0,0,1.5-1.909,18.505,18.505,0,0,0,1.35-2.756,20.636,20.636,0,0,0,.982-3.218,15.428,15.428,0,0,0,.368-3.315v-1.5a8.229,8.229,0,0,0-4.036,1.541,9,9,0,0,0-2.769,3.287,9.742,9.742,0,0,0-1,4.418,6.362,6.362,0,0,0,.614,2.987,1.816,1.816,0,0,0,1.6,1.159" transform="translate(-12.286 -8.002)" fill="#1a1311"/>
          <path id="Path_113" data-name="Path 113" d="M121.516,136.745c-.182.11-.317.092-.409-.055q-.109-.192-.422-.655t-.641-.954q-.328-.491-.519-.736a.2.2,0,0,1,0-.3c.036-.055.164-.081.382-.081h.45a3.524,3.524,0,0,0,.668-.083q.546-.109,1.146-.259c.4-.1.809-.214,1.228-.342v-9.355h-1.991a9.19,9.19,0,0,0-1.472.137l-.219-1.174a9.584,9.584,0,0,0,1.665.219H123.4v-6.056a2.667,2.667,0,0,0-.191-1.282.294.294,0,0,1,0-.3.248.248,0,0,1,.272-.054,6.226,6.226,0,0,1,.777.137q.478.108.955.231c.317.082.576.151.777.205q.272.081.219.327c0,.163-.1.264-.3.3a3.164,3.164,0,0,0-.559.11c-.191.054-.286.228-.286.518v5.865h1.445a.293.293,0,0,0,.273-.138q.163-.163.45-.477c.192-.21.323-.351.4-.423a.324.324,0,0,1,.518-.027,5.852,5.852,0,0,1,.655.558q.382.368.627.614a.439.439,0,0,1,.177.463.3.3,0,0,1-.313.246h-4.228v8.865q1.253-.41,2.387-.833t1.868-.75a.331.331,0,0,1,.246.491q-.573.355-1.529.873t-2.059,1.092q-1.1.572-2.182,1.09t-1.923.872c-.182.074-.287.161-.314.261a.917.917,0,0,0,.067.477.271.271,0,0,1-.109.381m10.392.546q-1.773-.193-1.773-1.554v-9.71l-2.128.844a8.647,8.647,0,0,0-1.309.656l-.628-1.009a11.817,11.817,0,0,0,1.637-.41l2.427-.981v-6.083a4.922,4.922,0,0,0-.054-.8,1.411,1.411,0,0,0-.138-.45.2.2,0,0,1,0-.3c.037-.054.128-.081.273-.081q.518.081,1.241.244c.481.111.895.21,1.241.3q.272.03.218.327a.269.269,0,0,1-.3.273,2.854,2.854,0,0,0-.573.123.463.463,0,0,0-.3.5V124.5l2.783-1.118v-7.745a6.551,6.551,0,0,0-.041-.9.814.814,0,0,0-.15-.38.3.3,0,0,1,0-.3.247.247,0,0,1,.273-.054q.49.081,1.241.23t1.268.287a.318.318,0,0,1,.218.328.328.328,0,0,1-.3.3,3.273,3.273,0,0,0-.586.11c-.191.055-.287.218-.287.491v7.009l3.6-1.445a.964.964,0,0,0,.3-.19c.128-.165.255-.337.382-.52a5.344,5.344,0,0,1,.382-.49.346.346,0,0,1,.518-.083c.109.073.29.215.546.424s.508.413.763.612.437.347.546.436c.219.2.192.382-.082.547-.146.072-.3.159-.477.258l-.451.259a1.029,1.029,0,0,0-.272.206.647.647,0,0,0-.082.395v4.964a7.871,7.871,0,0,1-.327,2.551,2.59,2.59,0,0,1-1,1.349,4.617,4.617,0,0,1-1.7.628,2.737,2.737,0,0,0-.682-1.35,3.139,3.139,0,0,0-1.418-.7.41.41,0,0,1-.027-.327.331.331,0,0,1,.191-.218q.382.055.981.15a7.235,7.235,0,0,0,1.119.094.964.964,0,0,0,.955-.49,4.6,4.6,0,0,0,.245-1.827v-5.946c-.073.017-.49.182-1.254.49s-1.683.674-2.756,1.092v3.436q0,.928.028,2.045t.041,2.17q.012,1.05.04,1.785c.018.491.027.782.027.873,0,.146-.14.29-.423.436a1.9,1.9,0,0,1-.886.218q-.573,0-.574-.491c0-.072,0-.359.014-.859s.022-1.112.041-1.841.031-1.482.04-2.264.014-1.482.014-2.1V124.28l-2.783,1.091v9.493q0,.79,1.037.9a16.425,16.425,0,0,0,1.65.124q1.1.039,2.386.026t2.415-.1a9.694,9.694,0,0,0,1.731-.245,1.25,1.25,0,0,0,.587-.327,1.461,1.461,0,0,0,.313-.546c.072-.2.164-.5.272-.885s.219-.806.327-1.242.205-.836.287-1.2.14-.609.177-.736q.355-.246.545.081,0,.165-.027.75c-.018.392-.037.819-.054,1.282s-.033.887-.041,1.268-.013.619-.013.71a.44.44,0,0,0,.354.49,2.893,2.893,0,0,1,.64.259.489.489,0,0,1,.26.451.842.842,0,0,1-.287.628,2.482,2.482,0,0,1-1.1.463,18.038,18.038,0,0,1-1.854.232q-1.145.094-2.482.15t-2.673.055q-1.337,0-2.455-.041t-1.827-.122" transform="translate(-12.025 -11.474)" fill="#1a1311"/>
          <path id="Path_114" data-name="Path 114" d="M144.947,158.616a1.131,1.131,0,0,1-.655.122.817.817,0,0,1-.572-.423,20.127,20.127,0,0,0-2.5-3.109,18.139,18.139,0,0,0-2.987-2.509c-.128-.255-.063-.428.192-.519a17.328,17.328,0,0,1,2.564.436,12.468,12.468,0,0,1,2.509.9,5.327,5.327,0,0,1,1.881,1.473,2.571,2.571,0,0,1,.6,1.433,2.646,2.646,0,0,1-.231,1.35,1.7,1.7,0,0,1-.8.845" transform="translate(-13.909 -15.319)" fill="#1a1311"/>
          <path id="Path_115" data-name="Path 115" d="M64.7,25c-.382,0-.573-.154-.573-.463q0-.163.041-2.059t.094-5.1q.055-3.205.055-7.268H61.669a8.933,8.933,0,0,0-1.445.136l-.245-1.2a10,10,0,0,0,1.69.219h2.646v-6a4.6,4.6,0,0,0-.055-.888.923.923,0,0,0-.163-.368.294.294,0,0,1,0-.3.378.378,0,0,1,.272-.082q.491.082,1.3.246c.535.109.977.209,1.322.3a.337.337,0,0,1,.219.354.27.27,0,0,1-.3.273,2.518,2.518,0,0,0-.587.122q-.286.1-.286.5V9.263h4.527v-6.3a6.232,6.232,0,0,0-.04-.887.816.816,0,0,0-.15-.369q-.109-.19,0-.3a.378.378,0,0,1,.272-.082q.491.082,1.282.246t1.309.3q.271.081.218.326,0,.247-.3.3a3.211,3.211,0,0,0-.559.109c-.192.055-.286.228-.286.518V9.263h4.282v-6.3a6.052,6.052,0,0,0-.041-.887.806.806,0,0,0-.15-.369.3.3,0,0,1,0-.3.381.381,0,0,1,.273-.082c.326.055.759.137,1.3.246s.978.209,1.323.3a.317.317,0,0,1,.219.326.329.329,0,0,1-.3.3,3.224,3.224,0,0,0-.586.109q-.286.082-.286.518c0,.165,0,.546.014,1.147s.018,1.336.028,2.209.013,1.8.013,2.782h2.373a.839.839,0,0,0,.232-.027.351.351,0,0,0,.177-.137q.163-.19.5-.627t.478-.6c.127-.183.3-.2.518-.055a5,5,0,0,1,.573.45c.236.21.478.419.722.628s.423.368.532.478a.5.5,0,0,1,.164.478.285.285,0,0,1-.3.259H78.388q.028,1.473.041,2.917t.027,2.659q.014,1.214.028,1.991t.013.915c0,.163-.146.313-.435.45a2.094,2.094,0,0,1-.9.2c-.382,0-.573-.154-.573-.464V17.772H72.307v1.882c0,.146-.15.29-.451.437a2.068,2.068,0,0,1-.914.218q-.573,0-.573-.491,0-.108.027-1t.069-2.277q.04-1.391.067-3.069t.027-3.368H66.033V22.164H79.425a.408.408,0,0,0,.3-.109,5.035,5.035,0,0,1,.34-.382c.174-.182.345-.368.519-.558s.286-.314.341-.369a.318.318,0,0,1,.49-.027,4.756,4.756,0,0,1,.587.463q.368.329.75.641c.255.21.436.368.545.478a.467.467,0,0,1,.138.451.286.286,0,0,1-.3.259h-17.1v1.336q0,.217-.436.436a2,2,0,0,1-.9.218m7.61-8.045H76.59V10.109H72.307Z" transform="translate(-6.038 -0.133)" fill="#1a1311"/>
          <path id="Path_116" data-name="Path 116" d="M63.277,62.113c-.365,0-.546-.155-.546-.463q0-.055.028-1t.067-2.509q.04-1.569.083-3.533t.067-4.1Q63,48.367,63,46.322q0-2.018-.027-3.1T62.9,41.657a2.349,2.349,0,0,0-.191-.764.239.239,0,0,1,.055-.3.253.253,0,0,1,.3-.027,5.511,5.511,0,0,1,.573.314c.254.155.522.313.8.478s.5.29.668.382H79.778a.4.4,0,0,0,.3-.11c.128-.145.278-.323.451-.532s.314-.378.423-.505a.376.376,0,0,1,.232-.136.6.6,0,0,1,.286.136,3.865,3.865,0,0,1,.546.424q.353.314.71.627c.235.21.408.369.518.478.2.2.172.364-.083.491a4.115,4.115,0,0,1-.408.2c-.146.064-.291.133-.436.205a.426.426,0,0,0-.165.136.75.75,0,0,0-.054.355v3q0,1.746.027,3.668t.082,3.764q.055,1.84.1,3.368t.068,2.5q.027.967.027,1.1c0,.164-.146.331-.436.5a2.048,2.048,0,0,1-1.063.259c-.365,0-.546-.146-.546-.436V59.986H64.8v1.5q0,.217-.45.423a2.585,2.585,0,0,1-1.077.2M64.8,50.358h6.874V42.584H64.8Zm0,8.81h6.874V51.176H64.8Zm8.674-8.81h6.874V42.584H73.479Zm0,8.81h6.874V51.176H73.479Z" transform="translate(-6.309 -4.073)" fill="#1a1311"/>
          <path id="Path_117" data-name="Path 117" d="M59.706,92.365a.369.369,0,0,1-.231-.2.293.293,0,0,1,.013-.287,30.506,30.506,0,0,0,2.782-1.786q1.555-1.1,3.15-2.469a31.2,31.2,0,0,0,2.945-2.864,16.425,16.425,0,0,0,2.169-2.972,2.511,2.511,0,0,0,.272-.723c.036-.21.064-.378.082-.505.018-.218.063-.344.136-.381a.248.248,0,0,1,.273,0c.2.091.464.219.791.381l.982.491q.491.246.764.409a.26.26,0,0,1,.137.382.276.276,0,0,1-.354.218L73.453,82a13.855,13.855,0,0,0,2.74,3.219,16.216,16.216,0,0,0,3.192,2.14,19.266,19.266,0,0,0,3.164,1.282,23.749,23.749,0,0,0,2.6.64,5.6,5.6,0,0,0-1.472.928,3.821,3.821,0,0,0-.928,1.118,25.785,25.785,0,0,1-3.3-1.747,18.521,18.521,0,0,1-3.6-2.945,17.8,17.8,0,0,1-3.109-4.5l-.055.055a23.118,23.118,0,0,1-2.973,3.4,38.7,38.7,0,0,1-3.491,2.932,36.318,36.318,0,0,1-3.5,2.318,27.024,27.024,0,0,1-3.015,1.527m.546-7.392a.346.346,0,0,1-.3-.49q.818-.546,1.895-1.4T64,81.209a23.019,23.019,0,0,0,1.924-2.018,9.265,9.265,0,0,0,1.254-1.855,1.936,1.936,0,0,0,.246-.817.316.316,0,0,1,.137-.327.264.264,0,0,1,.273.054c.2.109.453.264.763.464s.61.395.9.586l.683.45a.254.254,0,0,1,.082.382c-.073.182-.192.246-.355.191a1.172,1.172,0,0,0-.654-.109,1.116,1.116,0,0,0-.546.409A25.718,25.718,0,0,1,66.2,81,34.264,34.264,0,0,1,63.156,83.3a22.434,22.434,0,0,1-2.9,1.677M66.17,100.63c-.4,0-.6-.137-.6-.409q0-.246.055-1.323t.1-2.659q.04-1.581.041-3.274a19.479,19.479,0,0,0-.083-2.168,3.527,3.527,0,0,0-.218-.941.239.239,0,0,1,.054-.3.261.261,0,0,1,.3-.027c.127.054.323.155.586.3s.541.3.833.45.535.286.736.4h7.991a.407.407,0,0,0,.3-.11c.109-.126.264-.3.463-.532s.345-.386.437-.478a.464.464,0,0,1,.231-.149.566.566,0,0,1,.314.122c.091.054.263.183.518.382s.514.4.778.6a6.177,6.177,0,0,1,.559.463q.353.328-.082.546a3.706,3.706,0,0,1-.382.219l-.436.218a.49.49,0,0,0-.164.123.644.644,0,0,0-.056.341q0,1.2.029,2.387t.082,2.2q.054,1.009.081,1.649c.018.428.028.678.028.751,0,.164-.142.341-.423.532a2,2,0,0,1-1.132.287c-.364,0-.545-.147-.545-.437v-.927h-8.92v1.065q0,.217-.423.463a2.066,2.066,0,0,1-1.05.246m1.473-2.591h8.92V91.492h-8.92ZM81.608,82.928q-.519.273-1.173-.6a15.3,15.3,0,0,0-2.823-3.015,17.747,17.747,0,0,0-3.259-2.14.376.376,0,0,1-.013-.328.292.292,0,0,1,.232-.191,24.1,24.1,0,0,1,2.591.887,19.142,19.142,0,0,1,2.59,1.268,6.319,6.319,0,0,1,1.828,1.528,2.333,2.333,0,0,1,.532,1.541,1.2,1.2,0,0,1-.5,1.05" transform="translate(-5.984 -7.668)" fill="#1a1311"/>
          <path id="Path_118" data-name="Path 118" d="M64.46,138.5q-.573,0-.573-.464,0-.136.04-.954t.083-2.059q.04-1.24.082-2.7t.04-2.85V125.6a28.815,28.815,0,0,1-2.073,4.173,23.126,23.126,0,0,1-2.373,3.3q-.436.055-.436-.355A30.656,30.656,0,0,0,61,129.487q.9-1.9,1.691-4.1a32.691,32.691,0,0,0,1.255-4.473H61.677a9.129,9.129,0,0,0-1.445.137l-.219-1.2a7.887,7.887,0,0,0,1.664.245h2.455v-4.609a2.9,2.9,0,0,0-.191-1.282.2.2,0,0,1,0-.3.308.308,0,0,1,.272-.054q.41.081,1.159.259c.5.119.924.222,1.269.313a.318.318,0,0,1,.219.327.27.27,0,0,1-.3.272,2.609,2.609,0,0,0-.586.123q-.287.1-.287.5v4.445h1.119a.416.416,0,0,0,.3-.136c.092-.109.232-.268.424-.478s.322-.35.395-.423a.325.325,0,0,1,.518-.028,5.7,5.7,0,0,1,.655.559q.382.368.656.614a.461.461,0,0,1,.15.464.287.287,0,0,1-.288.245H65.687V123.8c.019,0,.027,0,.027-.014s.01-.013.029-.013a17.073,17.073,0,0,1,1.745.968,6.378,6.378,0,0,1,1.665,1.433h3.981q.546-1.091.941-1.937t.505-1.173a3.679,3.679,0,0,0,.218-1.2q-.028-.41.109-.491a.246.246,0,0,1,.273,0q.272.136.709.395t.887.518q.449.26.723.424a.273.273,0,0,1,.109.382.309.309,0,0,1-.382.191.945.945,0,0,0-.613-.014,1.272,1.272,0,0,0-.45.478q-.111.192-.451.86t-.8,1.568h6.219a.321.321,0,0,0,.273-.109q.135-.165.518-.6c.254-.291.427-.491.518-.6a.33.33,0,0,1,.491,0,6.451,6.451,0,0,1,.817.668c.345.317.6.559.764.723a.537.537,0,0,1,.177.5.334.334,0,0,1-.369.231H80.8a18.627,18.627,0,0,1-1.173,3.437,16.277,16.277,0,0,1-1.582,2.727,30.454,30.454,0,0,1,2.864,1.269,10.76,10.76,0,0,1,2.1,1.349,1.536,1.536,0,0,1,.586.9,2.176,2.176,0,0,1,.013,1,.8.8,0,0,1-.409.586.632.632,0,0,1-.546-.028,4.829,4.829,0,0,1-.736-.573q-1.064-.927-2.265-1.8a27.515,27.515,0,0,0-2.536-1.637,11.256,11.256,0,0,1-4.527,2.933,20.088,20.088,0,0,1-5.756,1.05.4.4,0,0,1-.137-.287.354.354,0,0,1,.11-.259,20.73,20.73,0,0,0,5.2-1.432,10.374,10.374,0,0,0,3.722-2.74q-.873-.437-1.813-.8a18.893,18.893,0,0,0-1.951-.641q-.246.518-.409.873c-.11.237-.191.4-.246.491-.054.146-.25.228-.586.245a2.054,2.054,0,0,1-.859-.109q-.6-.273-.328-.683a12.992,12.992,0,0,0,.723-1.227q.5-.927,1.174-2.168t1.3-2.469h-3.11a2.1,2.1,0,0,1,0,1.255,1.014,1.014,0,0,1-.709.764.473.473,0,0,1-.5-.137,3.148,3.148,0,0,1-.478-.9,10.9,10.9,0,0,0-.954-1.965,6.912,6.912,0,0,0-1.282-1.554v5.019q0,1.5.027,2.918t.041,2.6q.013,1.187.041,1.937c.018.5.027.8.027.914q0,.245-.451.45a2.178,2.178,0,0,1-.913.205m7.882-16.883a.693.693,0,0,1-.49-.068,1.093,1.093,0,0,1-.382-.641,19.356,19.356,0,0,0-1.077-2.686,8.137,8.137,0,0,0-1.622-2.3c-.037-.29.082-.436.353-.436a7.18,7.18,0,0,1,1.514.941,9.73,9.73,0,0,1,1.418,1.378A5.458,5.458,0,0,1,73,119.356a1.975,1.975,0,0,1,.068,1.486,1.19,1.19,0,0,1-.723.778m4.091,10.965a17.081,17.081,0,0,0,2.346-5.592H74.5q-.572,1.091-1.158,2.278t-1.05,2.141q2.018.464,4.145,1.173m0-12.247a.8.8,0,0,1-.463-.1c-.164-.082-.272-.3-.327-.668a10.421,10.421,0,0,0-.737-2.646,9.035,9.035,0,0,0-1.309-2.21.381.381,0,0,1,.122-.3.326.326,0,0,1,.286-.081,7.533,7.533,0,0,1,1.406.995,8.207,8.207,0,0,1,1.227,1.35,4.337,4.337,0,0,1,.722,1.528,2.082,2.082,0,0,1-.067,1.446,1.1,1.1,0,0,1-.86.681m2.183,3.765c-.273.055-.436-.037-.491-.273q.355-.627.8-1.6t.9-2.086q.449-1.12.791-2.224a11.791,11.791,0,0,0,.45-1.977c.018-.2.028-.372.028-.519a2.357,2.357,0,0,0-.028-.381c-.037-.219-.018-.355.055-.409a.29.29,0,0,1,.3,0c.2.073.481.187.844.34s.723.31,1.078.464.613.278.777.369a.312.312,0,0,1,.164.381.222.222,0,0,1-.122.177.51.51,0,0,1-.205.041,1.6,1.6,0,0,0-.586.04.629.629,0,0,0-.341.369q-.546,1.228-1.323,2.632t-1.6,2.646a17.658,17.658,0,0,1-1.5,2" transform="translate(-5.964 -11.46)" fill="#1a1311"/>
          <path id="Path_119" data-name="Path 119" d="M66.22,176.335q-.6,0-.6-.464c0-.092.008-.378.027-.859s.036-1.073.054-1.773.037-1.432.055-2.2.027-1.463.027-2.1a21.594,21.594,0,0,1-1.649,2.25q-.942,1.132-1.936,2.113t-1.869,1.746c-.29-.036-.418-.174-.381-.408q.544-.629,1.282-1.568t1.527-2.06q.792-1.12,1.487-2.319a18.526,18.526,0,0,0,1.159-2.345H62.565a9.036,9.036,0,0,0-1.445.136l-.218-1.173a9.4,9.4,0,0,0,1.663.219h3.218v-1.2a2.862,2.862,0,0,0-.191-1.282.2.2,0,0,1,0-.3.315.315,0,0,1,.273-.054q.463.081,1.2.246t1.228.3a.319.319,0,0,1,.218.327.329.329,0,0,1-.3.3,3.278,3.278,0,0,0-.585.11c-.192.055-.286.219-.286.491v1.064H69.93a.407.407,0,0,0,.3-.109c.09-.11.231-.269.422-.478s.331-.359.423-.45a.347.347,0,0,1,.518-.028q.247.192.641.558t.641.641a.443.443,0,0,1,.15.451.282.282,0,0,1-.286.232h-5.4v1.118a12.357,12.357,0,0,1,1.486.627,11.461,11.461,0,0,1,1.6.955,4.49,4.49,0,0,1,1.2,1.228,1.361,1.361,0,0,1,.178,1.214,1.147,1.147,0,0,1-.532.75.507.507,0,0,1-.382.013.945.945,0,0,1-.409-.45,9.936,9.936,0,0,0-1.391-2,10.649,10.649,0,0,0-1.745-1.623v.6q0,.954.027,2.086t.055,2.168q.026,1.036.054,1.773c.018.491.027.791.027.9,0,.146-.136.287-.409.423a1.93,1.93,0,0,1-.872.205M60.247,162.4,60,161.224a9.571,9.571,0,0,0,1.663.219h5.892a19.435,19.435,0,0,0,.7-1.909,11.919,11.919,0,0,0,.45-1.882,1.951,1.951,0,0,0,.041-.478c-.009-.118-.013-.213-.013-.286-.019-.127,0-.21.054-.246a.245.245,0,0,1,.272-.054c.165.073.39.167.683.286s.576.237.859.354.486.2.613.259a.313.313,0,0,1,.164.381.277.277,0,0,1-.355.219.659.659,0,0,0-.381,0,.758.758,0,0,0-.3.353,14.638,14.638,0,0,1-.942,1.528q-.587.846-1.05,1.473h2.291a.318.318,0,0,0,.272-.11q.136-.163.464-.5t.464-.478a.319.319,0,0,1,.491-.027q.244.192.7.6t.668.628a.48.48,0,0,1,.177.477.315.315,0,0,1-.341.232H61.692a9.239,9.239,0,0,0-1.445.137m.764-5.864-.219-1.2a9.526,9.526,0,0,0,1.665.218h3.327v-2.209a4.308,4.308,0,0,0-.054-.777,1.539,1.539,0,0,0-.164-.478.521.521,0,0,1-.027-.164.291.291,0,0,1,.054-.164c.036-.073.128-.091.273-.054q.436.054,1.2.232c.508.119.918.222,1.228.313a.319.319,0,0,1,.218.327.269.269,0,0,1-.3.273,2.612,2.612,0,0,0-.585.123c-.192.064-.286.232-.286.5v2.072H69.93a.319.319,0,0,0,.273-.109q.136-.135.463-.491t.464-.491q.19-.244.49-.027.247.192.7.6t.668.628a.494.494,0,0,1,.177.491.316.316,0,0,1-.341.245H62.456a9.015,9.015,0,0,0-1.445.137m3.9,4.664a.524.524,0,0,1-.737-.382,9.452,9.452,0,0,0-.641-1.868,6.248,6.248,0,0,0-1.077-1.678.351.351,0,0,1,.094-.313.4.4,0,0,1,.287-.123,7.062,7.062,0,0,1,1.664,1.105,3.441,3.441,0,0,1,1.037,1.4,1.481,1.481,0,0,1,.068,1.214,1.1,1.1,0,0,1-.7.641m15.083,14.974q-.519,0-.519-.436V162.043H76.393a21.034,21.034,0,0,1-1.623,8.442,11.65,11.65,0,0,1-4.977,5.55.443.443,0,0,1-.272-.191.371.371,0,0,1-.055-.273,11.657,11.657,0,0,0,3.027-3.518,15.744,15.744,0,0,0,1.665-4.9,37.728,37.728,0,0,0,.518-6.669q0-2.1-.027-3.355t-.11-1.951a3.73,3.73,0,0,0-.272-1.1c-.037-.127-.019-.218.054-.272a.215.215,0,0,1,.3-.027l.573.286q.409.2.845.45t.71.409a22.716,22.716,0,0,0,2.413-1.1,12.342,12.342,0,0,0,1.9-1.186,2.191,2.191,0,0,0,.531-.546.666.666,0,0,1,.232-.273c.073-.055.165-.036.273.055a7.051,7.051,0,0,1,.614.477c.245.21.494.424.75.641s.453.4.6.545a.242.242,0,0,1,.054.382.323.323,0,0,1-.409.136,2.21,2.21,0,0,0-.573-.231.875.875,0,0,0-.518.1,28.684,28.684,0,0,1-3.054,1.009q-1.692.465-3.165.764v5.536h5.018a.363.363,0,0,0,.3-.136q.136-.138.518-.573c.255-.291.427-.491.519-.6a.33.33,0,0,1,.49,0,6.419,6.419,0,0,1,.8.655c.336.309.6.556.777.737a.6.6,0,0,1,.165.5c-.037.155-.155.232-.355.232H81.112q0,1.31.027,3.014t.082,3.451q.054,1.744.109,3.273c.036,1.018.065,1.854.082,2.509s.027,1.018.027,1.091c0,.145-.145.314-.435.505a1.8,1.8,0,0,1-1.009.286" transform="translate(-6.034 -15.269)" fill="#1a1311"/>
          <path id="Path_120" data-name="Path 120" d="M76.96,214.3a5.339,5.339,0,0,0-.709-1.432,2.27,2.27,0,0,0-1.01-.75,6.7,6.7,0,0,0-1.718-.354q-.244-.355.082-.546.273,0,.915.04c.426.028.89.055,1.389.082s.942.041,1.324.041a.966.966,0,0,0,.613-.15.747.747,0,0,0,.177-.585V194.412H72.433q0,2.4.028,4.787t.081,4.337q.054,1.951.082,3.164c.019.808.027,1.241.027,1.3q0,.219-.395.464a1.751,1.751,0,0,1-.942.246q-.518,0-.518-.409v-1.527H63.459v2.046c0,.127-.128.272-.381.436a1.681,1.681,0,0,1-.927.245c-.328,0-.491-.154-.491-.463q0-.136.013-1.05t.041-2.346q.027-1.431.055-3.11t.041-3.4q.013-1.717.013-3.164,0-1.527-.013-2.441t-.056-1.419a6.077,6.077,0,0,0-.094-.75,2.442,2.442,0,0,0-.138-.436.285.285,0,0,1,.056-.3.249.249,0,0,1,.3-.027l.873.477q.572.313.927.532h6.545a.487.487,0,0,0,.355-.11c.09-.091.213-.209.368-.354s.295-.281.424-.409a.394.394,0,0,1,.572,0q.272.219.778.668c.336.3.567.514.7.641q.326.382-.109.546c-.129.054-.232.1-.315.136s-.194.092-.341.164a.4.4,0,0,0-.163.137.731.731,0,0,0-.055.354v.191h8.673a.721.721,0,0,0,.219-.027.362.362,0,0,0,.164-.137q.163-.217.5-.64t.477-.614a.347.347,0,0,1,.519-.027,5.552,5.552,0,0,1,.586.45c.246.209.487.419.723.627s.409.369.518.478a.5.5,0,0,1,.163.477.284.284,0,0,1-.3.259H79.8v4.337q0,2.346.027,4.445t.055,3.75q.026,1.651.054,2.659t.027,1.2a3.346,3.346,0,0,1-.641,2.128A4.782,4.782,0,0,1,76.96,214.3m-13.5-15.52h2.783v-6.328H63.459Zm0,7.174h2.783v-6.355H63.459Zm4.445-7.174H70.8v-6.328H67.9Zm0,7.174H70.8v-6.355H67.9Z" transform="translate(-6.191 -19.182)" fill="#1a1311"/>
          <path id="Path_121" data-name="Path 121" d="M78.348,250.293a12.72,12.72,0,0,1-4.855-.395,6.014,6.014,0,0,1-3.274-2.3,7.68,7.68,0,0,1-1.172-4.5,11.294,11.294,0,0,1,1.3-5.592,11.952,11.952,0,0,1,3.2-3.763,33.129,33.129,0,0,0-3.395.79,38.29,38.29,0,0,0-3.668,1.282,9.794,9.794,0,0,0-1.119.5,2.47,2.47,0,0,1-1.146.315,1.856,1.856,0,0,1-1.35-.519,3.227,3.227,0,0,1-.791-1.241,6.515,6.515,0,0,1-.341-1.323.354.354,0,0,1,.545-.191,1.493,1.493,0,0,0,.668.764,2.682,2.682,0,0,0,1.268.246,11.537,11.537,0,0,0,1.964-.232q1.255-.232,2.877-.6t3.464-.777q1.841-.41,3.722-.777t3.629-.614a6.18,6.18,0,0,1,.831-.082.892.892,0,0,1,.559.218,2.429,2.429,0,0,1,.887,1.01.777.777,0,0,1-.041.818,1,1,0,0,1-.926.218q-1.01-.136-2.223-.232a11.343,11.343,0,0,0-2.415.068,4.928,4.928,0,0,0-2.181.846,7.108,7.108,0,0,0-2.933,3.654,14.914,14.914,0,0,0-.723,5.183,4.809,4.809,0,0,0,1.9,4.145,7.5,7.5,0,0,0,5.168.927,1.478,1.478,0,0,1,.463-.027.857.857,0,0,1,.381.218q1.037.846.818,1.364c-.146.346-.509.545-1.091.6m1.446-9.055a.866.866,0,0,1-.478-.15.959.959,0,0,1-.341-.614,11.132,11.132,0,0,0-.682-2,5.076,5.076,0,0,0-1.309-1.731c-.037-.291.082-.437.354-.437a5.97,5.97,0,0,1,2.741,2.1,3.038,3.038,0,0,1,.558,1.418,1.43,1.43,0,0,1-.245,1.023.811.811,0,0,1-.6.4m3.328-1.664a.937.937,0,0,1-.491-.083,1.093,1.093,0,0,1-.464-.545,10.083,10.083,0,0,0-1.037-1.773,6.106,6.106,0,0,0-1.663-1.5c-.074-.273.017-.436.272-.491a8.175,8.175,0,0,1,1.637.6,6.694,6.694,0,0,1,1.5.982,2.442,2.442,0,0,1,.818,1.255,1.468,1.468,0,0,1-.055,1.05q-.219.451-.518.505" transform="translate(-6.215 -23.282)" fill="#1a1311"/>
          <path id="Path_122" data-name="Path 122" d="M.364,24.74a.372.372,0,0,1-.231-.205.347.347,0,0,1-.013-.286,24.12,24.12,0,0,0,6.2-5.183,20.225,20.225,0,0,0,3.765-6.955,30.244,30.244,0,0,0,1.268-9.164,4.591,4.591,0,0,0-.055-.8,3.344,3.344,0,0,0-.11-.451c-.055-.145-.062-.245-.026-.3.017-.091.108-.119.272-.082q.274.054.887.205t1.255.3c.426.1.758.187.995.259.183.054.255.2.219.436q-.028.355-.3.355a3.334,3.334,0,0,0-1.036.15.448.448,0,0,0-.3.45,26.086,26.086,0,0,0,.737,6.56,18.9,18.9,0,0,0,1.935,4.855,15.928,15.928,0,0,0,2.619,3.4,16.251,16.251,0,0,0,2.783,2.2,15.977,15.977,0,0,0,2.441,1.255q1.078.424,1.568.587a6.057,6.057,0,0,0-1.6.791,4.022,4.022,0,0,0-1.077,1.009,18.306,18.306,0,0,1-1.649-.982A16.793,16.793,0,0,1,18.639,21.3,18.2,18.2,0,0,1,16.2,18.425a19.191,19.191,0,0,1-2.14-4.146,24.238,24.238,0,0,1-1.338-5.6,21.278,21.278,0,0,1-4.062,9.819A21.324,21.324,0,0,1,.364,24.74" transform="translate(-0.01 -0.13)" fill="#1a1311"/>
          <path id="Path_123" data-name="Path 123" d="M.492,61.354.274,60.182a9.5,9.5,0,0,0,1.663.218h9.574V53.472H5.047a9.406,9.406,0,0,0-1.472.137l-.219-1.173a9.5,9.5,0,0,0,1.664.218h6.491V46.435H5.593a28.249,28.249,0,0,1-2.006,3.45,32.822,32.822,0,0,1-2.44,3.15.34.34,0,0,1-.437-.327,31.368,31.368,0,0,0,2-3.614,39.833,39.833,0,0,0,1.65-4.009,23.651,23.651,0,0,0,1.009-3.8,3.926,3.926,0,0,0,.054-.587v-.341a.41.41,0,0,1,.056-.327c.036-.054.118-.063.245-.027h.028q.272.109.8.327t1.077.45c.364.156.636.278.818.369a.313.313,0,0,1,.164.381.337.337,0,0,1-.354.219,1.679,1.679,0,0,0-.613,0c-.119.037-.214.155-.287.355a31.622,31.622,0,0,1-1.39,3.518h5.536V41.581a12.942,12.942,0,0,0-.082-1.678,2.023,2.023,0,0,0-.273-.86.232.232,0,0,1,0-.3.313.313,0,0,1,.273-.054c.2.036.491.094.873.177s.767.168,1.158.259.687.164.887.218c.181.019.254.128.218.328,0,.182-.1.272-.3.272a2.655,2.655,0,0,0-.559.123q-.286.1-.286.505v5.045h5.973a.423.423,0,0,0,.3-.136l1.227-1.255a.345.345,0,0,1,.491-.027,10.98,10.98,0,0,1,.927.764q.545.491.818.764a.5.5,0,0,1,.15.478.282.282,0,0,1-.287.232h-9.6v6.218h5.127a.416.416,0,0,0,.3-.136L20.1,51.262a.331.331,0,0,1,.491,0,11.2,11.2,0,0,1,.927.764q.545.491.818.764a.441.441,0,0,1,.15.45.3.3,0,0,1-.314.231H13.42V60.4h6.9a.319.319,0,0,0,.272-.109l.381-.381q.3-.3.587-.6c.191-.2.3-.318.341-.355a.383.383,0,0,1,.491-.027c.09.054.29.2.6.436s.613.469.914.7.486.377.558.45a.446.446,0,0,1,.165.451c-.037.172-.128.259-.273.259H1.965a9.106,9.106,0,0,0-1.473.136" transform="translate(-0.028 -3.894)" fill="#1a1311"/>
          <path id="Path_124" data-name="Path 124" d="M13.2,99.534A11.033,11.033,0,0,1,9,98.852,2.587,2.587,0,0,1,7.255,96.5a2.674,2.674,0,0,1,.7-2.059,11.074,11.074,0,0,1,2.032-1.7q.491-.329,1.2-.765t1.527-.926a8.106,8.106,0,0,0-.342-1.773,3.487,3.487,0,0,0-.722-1.322,1.586,1.586,0,0,0-1.228-.505,3.662,3.662,0,0,0-1.854.519,6.725,6.725,0,0,0-1.623,1.309A10.806,10.806,0,0,0,5.7,90.915q-.436.791-.817.8c-.255.01-.518-.168-.791-.533a1.094,1.094,0,0,1-.245-1.063,2.579,2.579,0,0,1,.627-.845,17.466,17.466,0,0,0,1.541-1.649q.832-1,1.677-2.183t1.556-2.386q-.437.027-.888.027H7.5a2.6,2.6,0,0,1-2.154-.764,3.04,3.04,0,0,1-.6-1.936.336.336,0,0,1,.545-.083,1.3,1.3,0,0,0,.737,1.133,4.137,4.137,0,0,0,1.472.23q.6,0,1.282-.04t1.363-.15q.219-.409.409-.818c.127-.272.237-.527.327-.764a1.851,1.851,0,0,0,.1-1.39,1.486,1.486,0,0,0-1.05-.846.342.342,0,0,1,.109-.545,5.964,5.964,0,0,1,1.391.26,6.074,6.074,0,0,1,1.309.531.926.926,0,0,1,.5.723.834.834,0,0,1-.314.75,3.166,3.166,0,0,0-.409.436c-.127.165-.236.318-.326.463-.073.128-.156.273-.246.438s-.191.335-.3.517a6.861,6.861,0,0,0,1.445-.408,1.51,1.51,0,0,1,.559-.109,1.376,1.376,0,0,1,.723.3c.418.29.614.572.586.844a.628.628,0,0,1-.532.547,10.684,10.684,0,0,1-1.568.314q-1.05.151-2.25.232Q9.846,84.2,9.069,85.459T7.746,87.533A5.613,5.613,0,0,1,9,86.783a3.6,3.6,0,0,1,1.473-.314,3.022,3.022,0,0,1,2.073.7A4.7,4.7,0,0,1,13.774,88.9a9.6,9.6,0,0,1,1.254-2.372,6.689,6.689,0,0,1,1.855-1.759,4.38,4.38,0,0,1,2.373-.667,4.818,4.818,0,0,1,2.168.409,2.449,2.449,0,0,1,1.1.967,1.355,1.355,0,0,1,.137,1.077,1.222,1.222,0,0,1-.764.764q-.871.353-2.113.982t-2.631,1.4q-1.392.778-2.756,1.6a14.542,14.542,0,0,1,.219,2.141c.018.7.028,1.259.028,1.678a1.185,1.185,0,0,1-.382.953,1.233,1.233,0,0,1-.818.328.633.633,0,0,1-.559-.218,1.046,1.046,0,0,1-.149-.6v-.314a3.72,3.72,0,0,1,.027-.423q0-.491.027-1.159t0-1.378q-.629.383-1.174.764l-1.009.71a3.781,3.781,0,0,0-1.118,1.159,2.259,2.259,0,0,0-.245,1.268,1.47,1.47,0,0,0,1.213,1.269,12.082,12.082,0,0,0,2.959.287,16.591,16.591,0,0,0,2.551-.192,13.206,13.206,0,0,0,1.923-.408,2.051,2.051,0,0,1,.545-.109,1.456,1.456,0,0,1,.519.136q1.145.518,1.173,1.05c.018.354-.209.6-.682.75a15.083,15.083,0,0,1-2.7.409q-1.719.136-3.546.138m.982-9.385q1.364-.79,2.741-1.594t2.495-1.488q1.009-.627.955-1.255T19.2,85.185a3.784,3.784,0,0,0-2.292.738,6.292,6.292,0,0,0-1.691,1.867,9.853,9.853,0,0,0-1.036,2.359" transform="translate(-0.381 -7.763)" fill="#1a1311"/>
          <path id="Path_125" data-name="Path 125" d="M.464,137.074a.425.425,0,0,1-.3-.054A.337.337,0,0,1,0,136.775,21.956,21.956,0,0,0,.887,134.7a26.007,26.007,0,0,0,.791-2.5,13.374,13.374,0,0,0,.424-2.441,2.467,2.467,0,0,0,0-.5,2.538,2.538,0,0,1-.027-.341.561.561,0,0,1,0-.354.29.29,0,0,1,.326-.028q.41.138,1.065.368t1.009.369c.163.054.208.173.136.354q-.082.272-.327.218a.526.526,0,0,0-.423.056.784.784,0,0,0-.232.463,16.629,16.629,0,0,1-.832,2.6,19.623,19.623,0,0,1-1.146,2.36,12.3,12.3,0,0,1-1.186,1.745m5.264,1.419q-.6,0-.6-.491,0-.109.027-.818t.069-1.746q.04-1.036.067-2.2t.027-2.2V126.52q-.791.109-1.514.232t-1.24.176a.729.729,0,0,0-.519.192.69.69,0,0,0-.054.573.325.325,0,0,1-.219.354.313.313,0,0,1-.382-.164c-.073-.181-.182-.427-.326-.737s-.292-.618-.437-.927-.264-.554-.354-.737A.215.215,0,0,1,.3,125.21q.054-.054.409.027c.109.019.232.041.368.069a2.493,2.493,0,0,0,.478.04c.308.019.672.028,1.09.028H3.983q.461-.656,1.091-1.65t1.268-2.113q.639-1.118,1.172-2.168a11.582,11.582,0,0,0,.778-1.869,1.592,1.592,0,0,0,.1-.668.245.245,0,0,1,.1-.287c.054-.036.145-.027.272.028q.383.192,1.092.613c.473.282.853.514,1.146.7.163.073.191.2.081.382a.259.259,0,0,1-.354.163h-.055a1.5,1.5,0,0,0-.518-.067q-.244.013-.463.395-.573,1.009-1.432,2.223T6.492,123.4q-.9,1.13-1.61,1.949,1.145-.054,2.264-.109t1.937-.136a10.6,10.6,0,0,0-1.255-1.882q0-.436.382-.436a12.737,12.737,0,0,1,1.841,1.35,4.479,4.479,0,0,1,1.269,1.786,1.672,1.672,0,0,1,.04,1.268,1.126,1.126,0,0,1-.614.669.514.514,0,0,1-.477-.013.969.969,0,0,1-.341-.559,5.3,5.3,0,0,0-.232-.777q-.15-.4-.341-.8l-1.159.245q-.641.138-1.351.273v4.828q0,.982.028,2.1t.04,2.128q.013,1.01.041,1.7c.018.464.028.751.028.86,0,.164-.133.314-.4.45a1.847,1.847,0,0,1-.859.205M4.391,122.21a.663.663,0,0,1-.491.027q-.219-.081-.354-.518a11.027,11.027,0,0,0-1.213-2.331,9.7,9.7,0,0,0-1.65-1.815.365.365,0,0,1,.354-.464,13.691,13.691,0,0,1,1.3.71,9.868,9.868,0,0,1,1.132.819q.461-.792.968-1.842a12.525,12.525,0,0,0,.75-1.9,2.026,2.026,0,0,0,.109-.722c-.019-.174.009-.287.082-.341a.244.244,0,0,1,.272,0q.246.136.668.409c.282.182.563.359.846.532s.495.3.64.395a.322.322,0,0,1,.11.382.282.282,0,0,1-.382.164,1.04,1.04,0,0,0-.518-.068.688.688,0,0,0-.382.341,15.993,15.993,0,0,1-1.3,1.705q-.723.832-1.35,1.432a3.611,3.611,0,0,1,.791,1.173,1.778,1.778,0,0,1,.1,1.227,1.052,1.052,0,0,1-.478.683m6.246,12.028a.517.517,0,0,1-.463-.109,1.415,1.415,0,0,1-.327-.709,14.444,14.444,0,0,0-.791-2.427,12.14,12.14,0,0,0-1.445-2.427c.036-.273.182-.391.436-.355a12.2,12.2,0,0,1,1.391,1.118,9.632,9.632,0,0,1,1.255,1.406,4.33,4.33,0,0,1,.737,1.568,1.828,1.828,0,0,1-.055,1.336,1.034,1.034,0,0,1-.737.6m6.3,4.092a2.679,2.679,0,0,0-.832-1.555,6.045,6.045,0,0,0-2.141-.954q-.19-.382.164-.546c.146.037.428.1.845.191s.891.174,1.419.246a10.96,10.96,0,0,0,1.5.11,1.593,1.593,0,0,0,1.05-.478,4.416,4.416,0,0,0,1-1.623,14.755,14.755,0,0,0,.777-3.15,40.849,40.849,0,0,0,.4-5.059H16.883a24.521,24.521,0,0,1-1.268,5.4,13.176,13.176,0,0,1-2.509,4.227,13.393,13.393,0,0,1-4.3,3.11q-.382-.192-.246-.518a12.09,12.09,0,0,0,3.859-3.7,16.884,16.884,0,0,0,2.25-5.55,42.258,42.258,0,0,0,.928-7.938H12.11a9.681,9.681,0,0,0-1.5.164l-.246-1.228a9.847,9.847,0,0,0,1.746.246h3.927v-2.481q0-1.2-.055-1.937a2.534,2.534,0,0,0-.218-1.009.233.233,0,0,1,0-.3.313.313,0,0,1,.273-.054q.3.055.791.163t.982.232c.327.082.59.15.791.205q.272.081.219.327c0,.164-.1.264-.3.3a2.408,2.408,0,0,0-.518.11q-.246.082-.246.518v3.927h3.109a.415.415,0,0,0,.3-.137q.082-.081.314-.368c.154-.191.313-.382.477-.573s.264-.313.3-.368c.128-.146.29-.155.491-.027a3.522,3.522,0,0,1,.573.436l.8.7c.264.227.433.376.505.45a.445.445,0,0,1,.163.45c-.037.173-.127.259-.272.259H17.265q-.027,1.091-.1,2.128t-.205,2.018h3.819a.317.317,0,0,0,.272-.109l.955-.955a.3.3,0,0,1,.491.028c.11.091.263.231.463.422s.4.378.614.559a4.4,4.4,0,0,1,.451.437.487.487,0,0,1,.149.313.208.208,0,0,1-.178.232,6.009,6.009,0,0,0-.926.382.316.316,0,0,0-.15.136,1.285,1.285,0,0,0-.068.355,46.538,46.538,0,0,1-.777,6.191,8.976,8.976,0,0,1-1.718,3.981,4.966,4.966,0,0,1-3.424,1.665" transform="translate(0 -11.455)" fill="#1a1311"/>
          <path id="Path_126" data-name="Path 126" d="M16.243,176.129a.747.747,0,0,1-.614.1,1.111,1.111,0,0,1-.5-.587q-.656-1.336-1.61-3.068a40.118,40.118,0,0,0-2.2-3.519,22.063,22.063,0,0,0-2.8-3.286q-.464-.491-.627-.709a1.263,1.263,0,0,1-.164-.737,1.372,1.372,0,0,1,.164-.763,5.148,5.148,0,0,1,.709-.927q.409-.437,1.146-1.282t1.6-1.882q.858-1.036,1.648-2.018t1.282-1.691a2.135,2.135,0,0,0,.45-1.473,1.7,1.7,0,0,0-.694-1.119.365.365,0,0,1,.353-.464,6.818,6.818,0,0,1,1.037.519,7.2,7.2,0,0,1,1.146.818,1.551,1.551,0,0,1,.477.627,1.1,1.1,0,0,1,.069.6,1.359,1.359,0,0,1-.409.668q-.328.314-.764.7-.6.518-1.486,1.418t-1.828,1.923L10.9,161.851q-.792.859-1.2,1.3a4.284,4.284,0,0,0-.464.6.978.978,0,0,0-.109.491,1.242,1.242,0,0,0,.163.531,5.027,5.027,0,0,0,.791.832q.737.656,1.678,1.65t1.909,2.127q.967,1.132,1.773,2.223a12.049,12.049,0,0,1,1.214,1.964,2.235,2.235,0,0,1,.218,1.514,1.575,1.575,0,0,1-.627,1.05m3.6-11.782a.72.72,0,0,1-.423-.014q-.178-.069-.286-.451a13.378,13.378,0,0,0-.778-2.141,6.189,6.189,0,0,0-1.322-1.895c-.037-.29.082-.437.353-.437a7.339,7.339,0,0,1,2.114,1.419,3.6,3.6,0,0,1,1.132,1.881,1.51,1.51,0,0,1-.1,1.05,1.112,1.112,0,0,1-.7.586m3.328-2.073a.774.774,0,0,1-.423.082c-.119-.018-.25-.145-.395-.382a11.582,11.582,0,0,0-1.2-1.923,6.264,6.264,0,0,0-1.718-1.568.374.374,0,0,1,.027-.313.324.324,0,0,1,.218-.178,7.04,7.04,0,0,1,2.386.928A3.728,3.728,0,0,1,23.58,160.5a1.549,1.549,0,0,1,.136,1.078,1.084,1.084,0,0,1-.545.7" transform="translate(-0.778 -15.371)" fill="#1a1311"/>
          <path id="Path_127" data-name="Path 127" d="M22.146,198.1a3.84,3.84,0,0,1-2-.545,4.148,4.148,0,0,1-1.46-1.46,3.881,3.881,0,0,1-.545-2.032,3.811,3.811,0,0,1,.545-2.018,4.183,4.183,0,0,1,1.46-1.445,3.833,3.833,0,0,1,2-.547,3.888,3.888,0,0,1,2.033.547,4.18,4.18,0,0,1,1.459,1.445,3.819,3.819,0,0,1,.545,2.018,3.889,3.889,0,0,1-.545,2.032,4.146,4.146,0,0,1-1.459,1.46,3.9,3.9,0,0,1-2.033.545m0-1.145a2.984,2.984,0,0,0,2.114-.833,2.8,2.8,0,0,0,0-4.091,2.987,2.987,0,0,0-2.114-.831,2.95,2.95,0,0,0-2.086.831,2.8,2.8,0,0,0,0,4.091,2.948,2.948,0,0,0,2.086.833" transform="translate(-1.826 -19.132)" fill="#1a1311"/>
          <path id="Path_128" data-name="Path 128" d="M120.348,13.125a.722.722,0,0,1-.791-.505.98.98,0,0,1,.3-1.05,4.644,4.644,0,0,0,1.1-2.114,9.565,9.565,0,0,0,.259-2.9.351.351,0,0,1,.574-.056,16.166,16.166,0,0,1,.463,3.192,5.228,5.228,0,0,1-.4,2.441,1.658,1.658,0,0,1-1.514,1m3.3,11.782c-.38,0-.572-.155-.572-.464,0-.073.008-.34.027-.8s.037-1.064.054-1.8.037-1.545.056-2.427.036-1.782.055-2.7.027-1.778.027-2.577V1.887A2.665,2.665,0,0,0,123.1.606a.293.293,0,0,1,0-.3.375.375,0,0,1,.273-.055c.29.055.685.136,1.186.246s.9.209,1.214.3a.319.319,0,0,1,.218.327.331.331,0,0,1-.3.3,3.131,3.131,0,0,0-.587.109c-.191.054-.286.219-.286.491V14.161q0,1.636.027,3.355t.068,3.191q.042,1.473.068,2.427c.018.637.027,1.009.027,1.12,0,.145-.14.29-.423.436a2.031,2.031,0,0,1-.942.218m3.983-14.892a.85.85,0,0,1-.5-.04c-.155-.064-.269-.25-.341-.559a11.635,11.635,0,0,0-.532-1.978,4.956,4.956,0,0,0-1.105-1.786q0-.436.382-.436a8.052,8.052,0,0,1,1.747,1.3,3.519,3.519,0,0,1,.981,1.541.656.656,0,0,1,.067.2,1.1,1.1,0,0,0,.041.178h3.928c-.037-.109-.065-.2-.082-.273A9.588,9.588,0,0,0,131.68,6.4a5.488,5.488,0,0,0-.968-1.6.539.539,0,0,1,.054-.246h-1.309a9.3,9.3,0,0,0-1.472.137l-.219-1.173a9.41,9.41,0,0,0,1.664.219h4.991V1.887a2.865,2.865,0,0,0-.191-1.282.2.2,0,0,1,0-.3A.311.311,0,0,1,134.5.251L135.24.4c.309.064.622.133.942.205s.576.137.777.191q.271.082.218.327c0,.164-.1.264-.3.3a3.135,3.135,0,0,0-.558.109c-.192.054-.286.219-.286.491V3.742h4.418a.417.417,0,0,0,.3-.137c.092-.091.246-.25.464-.478s.363-.377.436-.45a.36.36,0,0,1,.518,0,5.255,5.255,0,0,1,.451.327l.627.49c.21.165.35.283.423.355a.446.446,0,0,1,.165.45.286.286,0,0,1-.3.259h-4.637q.382.165.778.342c.264.119.477.213.64.286a.287.287,0,0,1,.191.354q-.055.3-.327.246h-.027a1.089,1.089,0,0,0-.45-.013c-.1.027-.214.141-.341.342a14.677,14.677,0,0,1-.818,1.227,11.921,11.921,0,0,1-.9,1.091h3.654a.405.405,0,0,0,.3-.109c.091-.091.246-.25.464-.478s.363-.378.436-.451a.379.379,0,0,1,.246-.136.54.54,0,0,1,.273.109q.135.109.45.355c.209.163.417.323.628.477a4.537,4.537,0,0,1,.422.342.456.456,0,0,1,.164.463c-.036.183-.127.272-.273.272H128.312a.9.9,0,0,1-.682.737m-1.174,14.074-.218-1.2a9.5,9.5,0,0,0,1.664.218h6.518v-2.4h-5.127a9.03,9.03,0,0,0-1.446.138l-.218-1.174a9.409,9.409,0,0,0,1.664.219h5.127V17.516h-3.846v.409q0,.246-.4.437a1.784,1.784,0,0,1-.777.191.792.792,0,0,1-.409-.1.419.419,0,0,1-.164-.395c0-.109.014-.46.041-1.05s.049-1.309.067-2.155.027-1.694.027-2.551a11.841,11.841,0,0,0-.054-1.186,2.091,2.091,0,0,0-.164-.723.23.23,0,0,1,.055-.3.259.259,0,0,1,.3-.027q.3.163.859.477t.886.505h8.428a.406.406,0,0,0,.3-.11l.846-.845c.145-.182.326-.192.545-.027.145.109.382.3.709.585s.583.515.764.7c.218.2.2.373-.055.518-.127.073-.246.137-.354.192l-.328.164a.435.435,0,0,0-.272.409q0,.981.054,2.072t.109,1.924c.036.554.055.9.055,1.05q0,.272-.436.451a2.232,2.232,0,0,1-.845.177q-.491,0-.491-.409v-.382h-3.846v2.373h4.009a.407.407,0,0,0,.3-.109q.135-.165.423-.478c.19-.21.322-.36.395-.45a.347.347,0,0,1,.518-.028q.247.192.641.558t.668.641a.442.442,0,0,1,.15.45.3.3,0,0,1-.313.232h-6.792v2.4h5.536a.405.405,0,0,0,.3-.109c.091-.091.254-.264.491-.518s.4-.437.491-.546a.33.33,0,0,1,.491,0,3.024,3.024,0,0,1,.477.369l.573.518a3.865,3.865,0,0,1,.4.4.476.476,0,0,1,.176.477.333.333,0,0,1-.368.232H127.93a7.459,7.459,0,0,0-1.473.164m4.119-10.255h3.845V11.9h-3.845Zm0,2.863h3.845V14.652h-3.845Zm3-8.264h3.191q.247-.681.532-1.637a9.5,9.5,0,0,0,.368-1.746V4.56h-6.246a7.07,7.07,0,0,1,1.445,1.01,3.288,3.288,0,0,1,.9,1.336,1.753,1.753,0,0,1,.1.873,1.285,1.285,0,0,1-.287.655m2.455,5.4h3.846V11.9h-3.846Zm0,2.863h3.846V14.652h-3.846Z" transform="translate(-12.03 -0.025)" fill="#302d2c"/>
          <path id="Path_129" data-name="Path 129" d="M120.26,51.006a.651.651,0,0,1-.629-.205.9.9,0,0,1-.191-.668,1.293,1.293,0,0,1,.328-.764,5.583,5.583,0,0,0,1.063-2.237,14.465,14.465,0,0,0,.437-3.246.382.382,0,0,1,.572-.028,23.591,23.591,0,0,1,.3,3.519,6.278,6.278,0,0,1-.422,2.51,1.813,1.813,0,0,1-1.459,1.118m3.19,11.782q-.545,0-.545-.463c0-.073.009-.351.027-.832s.041-1.105.068-1.868.055-1.614.082-2.551.05-1.9.067-2.891.028-1.933.028-2.823V39.769a2.883,2.883,0,0,0-.191-1.282.232.232,0,0,1,0-.3.311.311,0,0,1,.273-.055q.407.082,1.159.246t1.185.3q.273.081.219.326a.289.289,0,0,1-.273.3,3.126,3.126,0,0,0-.585.109c-.192.055-.286.219-.286.491V51.388q0,1.746.027,3.56t.04,3.382q.014,1.569.041,2.592c.017.682.027,1.076.027,1.186,0,.146-.132.3-.395.45a1.89,1.89,0,0,1-.969.232m4.391-15.574a.617.617,0,0,1-.45.041c-.119-.046-.214-.186-.287-.424a9.522,9.522,0,0,0-.845-1.95,5.857,5.857,0,0,0-1.363-1.677c-.055-.273.045-.427.3-.464a8.087,8.087,0,0,1,1.854.927,3.665,3.665,0,0,1,1.282,1.5,1.521,1.521,0,0,1,.137,1.323,1.18,1.18,0,0,1-.628.723m-1.882,15.329a.388.388,0,0,1-.3-.491,19.446,19.446,0,0,0,2.032-1.446A26.5,26.5,0,0,0,129.7,58.82a12.686,12.686,0,0,0,1.554-1.813,1.745,1.745,0,0,0,.328-.669c.017-.153.063-.249.136-.286a.174.174,0,0,1,.272.055q.353.274.9.764l.818.737a.313.313,0,0,1,.027.409c-.092.146-.228.173-.409.081a.918.918,0,0,0-.423-.136.668.668,0,0,0-.423.246,19.09,19.09,0,0,1-2.019,1.69,23.968,23.968,0,0,1-2.291,1.487q-1.174.668-2.21,1.159m.628-13.884-.218-1.172a9.493,9.493,0,0,0,1.663.218h6.874V45.742h-3.273v.627c0,.129-.109.264-.327.41a1.55,1.55,0,0,1-.873.219c-.381,0-.573-.138-.573-.409q0-.192.041-1.091t.082-2.21q.04-1.31.04-2.728,0-.927-.04-1.309a2.458,2.458,0,0,0-.15-.654.185.185,0,0,1,.027-.273.254.254,0,0,1,.3-.027q.3.163.859.5l.914.558h7.228a.361.361,0,0,0,.3-.136c.091-.09.2-.209.326-.354s.255-.282.382-.409c.092-.11.174-.164.246-.164a.6.6,0,0,1,.3.136q.246.192.75.614t.722.641c.237.218.192.409-.136.572-.092.037-.187.077-.286.123s-.205.1-.314.15a.413.413,0,0,0-.165.137.743.743,0,0,0-.054.354c0,.4.01.863.027,1.39s.031,1.046.041,1.555.023.945.041,1.309.027.6.027.71q0,.136-.369.38a1.6,1.6,0,0,1-.914.246c-.345,0-.518-.145-.518-.436v-.437h-3.082v1.964h4.746a.407.407,0,0,0,.3-.109c.09-.091.255-.264.491-.518s.4-.437.491-.546a.344.344,0,0,1,.491-.027,5.828,5.828,0,0,1,.477.395c.192.174.382.341.574.505a3.3,3.3,0,0,1,.395.381.5.5,0,0,1,.177.49.335.335,0,0,1-.368.246h-16.2a9.783,9.783,0,0,0-1.472.136m7.61,14.129a3.282,3.282,0,0,0-.819-1.5,3.328,3.328,0,0,0-1.745-.6c-.165-.236-.137-.418.082-.545.145,0,.372.013.682.04s.641.049,1,.068.659.027.914.027a.8.8,0,0,0,.532-.136.611.611,0,0,0,.15-.464V54.716h-3.355v.545c0,.128-.123.268-.369.423a1.527,1.527,0,0,1-.832.232c-.381,0-.573-.137-.573-.409,0-.109.014-.409.041-.9s.055-1.068.082-1.732.04-1.3.04-1.9a6.9,6.9,0,0,0-.055-1.05,1.915,1.915,0,0,0-.163-.531c-.037-.128-.019-.219.054-.273a.216.216,0,0,1,.3-.027q.272.136.832.478l.914.558h7.419a.418.418,0,0,0,.3-.136c.09-.091.2-.205.327-.341s.237-.259.326-.369a.354.354,0,0,1,.547-.028q.271.192.75.587t.722.613q.328.326-.137.573a1.829,1.829,0,0,1-.272.136,1.8,1.8,0,0,0-.273.138.316.316,0,0,0-.178.136.971.971,0,0,0-.04.355q0,.6.04,1.3t.069,1.227c.017.355.027.578.027.668,0,.128-.128.264-.382.41a1.782,1.782,0,0,1-.9.218c-.345,0-.518-.145-.518-.437v-.462h-3.164v1.5q0,1.336.028,2.222c.017.592.027,1.032.027,1.323a3.217,3.217,0,0,1-.478,1.827,3.7,3.7,0,0,1-1.95,1.2M131.633,42.06h7.937V40.177h-7.937Zm0,2.836h7.937V42.878h-7.937Zm0,9h8.1V50.952h-8.1Zm11.619,7.964a.528.528,0,0,1-.381.068c-.127-.027-.255-.16-.382-.4a14.435,14.435,0,0,0-1.923-2.768,15.656,15.656,0,0,0-2.686-2.414.39.39,0,0,1,.068-.3.383.383,0,0,1,.259-.164,29.788,29.788,0,0,1,3.11,1.6,6.366,6.366,0,0,1,2.181,1.95,2.05,2.05,0,0,1,.341,1.433,1.132,1.132,0,0,1-.586.995" transform="translate(-12.023 -3.838)" fill="#302d2c"/>
          <path id="Path_130" data-name="Path 130" d="M131.214,99.018a.456.456,0,0,1-.205-.354.438.438,0,0,1,.123-.355,17.192,17.192,0,0,0,3.4-.982,12.54,12.54,0,0,0,3.123-1.8,8.652,8.652,0,0,0,2.277-2.713,7.617,7.617,0,0,0,.859-3.668,9.692,9.692,0,0,0-1.009-4.583,7.238,7.238,0,0,0-2.8-2.946,8.353,8.353,0,0,0-4.159-1.063v1.692a19.963,19.963,0,0,1-.451,4.254,24.1,24.1,0,0,1-1.173,3.873,18.371,18.371,0,0,1-1.609,3.164,10.216,10.216,0,0,1-1.76,2.128,2.553,2.553,0,0,1-1.609.764,3.352,3.352,0,0,1-2.509-1.146,5.924,5.924,0,0,1-1.2-2.114,9.892,9.892,0,0,1-.464-3.259,9.333,9.333,0,0,1,.764-3.627A11.474,11.474,0,0,1,125,82.913a11.04,11.04,0,0,1,3.368-2.483,9.882,9.882,0,0,1,4.35-.941,11.229,11.229,0,0,1,4.037.709,9.78,9.78,0,0,1,3.232,2.006,9.055,9.055,0,0,1,2.14,3.1,10.1,10.1,0,0,1,.764,3.982,8.133,8.133,0,0,1-1.023,4.159,9.378,9.378,0,0,1-2.713,2.96,13.186,13.186,0,0,1-3.765,1.841,18.054,18.054,0,0,1-4.173.777M126.141,94a2.191,2.191,0,0,0,1.391-.7,8.673,8.673,0,0,0,1.5-1.909,18.505,18.505,0,0,0,1.35-2.756,20.636,20.636,0,0,0,.982-3.218,15.428,15.428,0,0,0,.368-3.315v-1.5a8.229,8.229,0,0,0-4.036,1.541,9,9,0,0,0-2.769,3.287,9.742,9.742,0,0,0-1,4.418,6.362,6.362,0,0,0,.614,2.987,1.816,1.816,0,0,0,1.6,1.159" transform="translate(-12.286 -8.002)" fill="#302d2c"/>
          <path id="Path_131" data-name="Path 131" d="M121.516,136.745c-.182.11-.317.092-.409-.055q-.109-.192-.422-.655t-.641-.954q-.328-.491-.519-.736a.2.2,0,0,1,0-.3c.036-.055.164-.081.382-.081h.45a3.524,3.524,0,0,0,.668-.083q.546-.109,1.146-.259c.4-.1.809-.214,1.228-.342v-9.355h-1.991a9.19,9.19,0,0,0-1.472.137l-.219-1.174a9.584,9.584,0,0,0,1.665.219H123.4v-6.056a2.667,2.667,0,0,0-.191-1.282.294.294,0,0,1,0-.3.248.248,0,0,1,.272-.054,6.226,6.226,0,0,1,.777.137q.478.108.955.231c.317.082.576.151.777.205q.272.081.219.327c0,.163-.1.264-.3.3a3.164,3.164,0,0,0-.559.11c-.191.054-.286.228-.286.518v5.865h1.445a.293.293,0,0,0,.273-.138q.163-.163.45-.477c.192-.21.323-.351.4-.423a.324.324,0,0,1,.518-.027,5.852,5.852,0,0,1,.655.558q.382.368.627.614a.439.439,0,0,1,.177.463.3.3,0,0,1-.313.246h-4.228v8.865q1.253-.41,2.387-.833t1.868-.75a.331.331,0,0,1,.246.491q-.573.355-1.529.873t-2.059,1.092q-1.1.572-2.182,1.09t-1.923.872c-.182.074-.287.161-.314.261a.917.917,0,0,0,.067.477.271.271,0,0,1-.109.381m10.392.546q-1.773-.193-1.773-1.554v-9.71l-2.128.844a8.647,8.647,0,0,0-1.309.656l-.628-1.009a11.817,11.817,0,0,0,1.637-.41l2.427-.981v-6.083a4.922,4.922,0,0,0-.054-.8,1.411,1.411,0,0,0-.138-.45.2.2,0,0,1,0-.3c.037-.054.128-.081.273-.081q.518.081,1.241.244c.481.111.895.21,1.241.3q.272.03.218.327a.269.269,0,0,1-.3.273,2.854,2.854,0,0,0-.573.123.463.463,0,0,0-.3.5V124.5l2.783-1.118v-7.745a6.551,6.551,0,0,0-.041-.9.814.814,0,0,0-.15-.38.3.3,0,0,1,0-.3.247.247,0,0,1,.273-.054q.49.081,1.241.23t1.268.287a.318.318,0,0,1,.218.328.328.328,0,0,1-.3.3,3.273,3.273,0,0,0-.586.11c-.191.055-.287.218-.287.491v7.009l3.6-1.445a.964.964,0,0,0,.3-.19c.128-.165.255-.337.382-.52a5.344,5.344,0,0,1,.382-.49.346.346,0,0,1,.518-.083c.109.073.29.215.546.424s.508.413.763.612.437.347.546.436c.219.2.192.382-.082.547-.146.072-.3.159-.477.258l-.451.259a1.029,1.029,0,0,0-.272.206.647.647,0,0,0-.082.395v4.964a7.871,7.871,0,0,1-.327,2.551,2.59,2.59,0,0,1-1,1.349,4.617,4.617,0,0,1-1.7.628,2.737,2.737,0,0,0-.682-1.35,3.139,3.139,0,0,0-1.418-.7.41.41,0,0,1-.027-.327.331.331,0,0,1,.191-.218q.382.055.981.15a7.235,7.235,0,0,0,1.119.094.964.964,0,0,0,.955-.49,4.6,4.6,0,0,0,.245-1.827v-5.946c-.073.017-.49.182-1.254.49s-1.683.674-2.756,1.092v3.436q0,.928.028,2.045t.041,2.17q.012,1.05.04,1.785c.018.491.027.782.027.873,0,.146-.14.29-.423.436a1.9,1.9,0,0,1-.886.218q-.573,0-.574-.491c0-.072,0-.359.014-.859s.022-1.112.041-1.841.031-1.482.04-2.264.014-1.482.014-2.1V124.28l-2.783,1.091v9.493q0,.79,1.037.9a16.425,16.425,0,0,0,1.65.124q1.1.039,2.386.026t2.415-.1a9.694,9.694,0,0,0,1.731-.245,1.25,1.25,0,0,0,.587-.327,1.461,1.461,0,0,0,.313-.546c.072-.2.164-.5.272-.885s.219-.806.327-1.242.205-.836.287-1.2.14-.609.177-.736q.355-.246.545.081,0,.165-.027.75c-.018.392-.037.819-.054,1.282s-.033.887-.041,1.268-.013.619-.013.71a.44.44,0,0,0,.354.49,2.893,2.893,0,0,1,.64.259.489.489,0,0,1,.26.451.842.842,0,0,1-.287.628,2.482,2.482,0,0,1-1.1.463,18.038,18.038,0,0,1-1.854.232q-1.145.094-2.482.15t-2.673.055q-1.337,0-2.455-.041t-1.827-.122" transform="translate(-12.025 -11.474)" fill="#302d2c"/>
          <path id="Path_132" data-name="Path 132" d="M144.947,158.616a1.131,1.131,0,0,1-.655.122.817.817,0,0,1-.572-.423,20.127,20.127,0,0,0-2.5-3.109,18.139,18.139,0,0,0-2.987-2.509c-.128-.255-.063-.428.192-.519a17.328,17.328,0,0,1,2.564.436,12.468,12.468,0,0,1,2.509.9,5.327,5.327,0,0,1,1.881,1.473,2.571,2.571,0,0,1,.6,1.433,2.646,2.646,0,0,1-.231,1.35,1.7,1.7,0,0,1-.8.845" transform="translate(-13.909 -15.319)" fill="#302d2c"/>
          <path id="Path_133" data-name="Path 133" d="M64.7,25c-.382,0-.573-.154-.573-.463q0-.163.041-2.059t.094-5.1q.055-3.205.055-7.268H61.669a8.933,8.933,0,0,0-1.445.136l-.245-1.2a10,10,0,0,0,1.69.219h2.646v-6a4.6,4.6,0,0,0-.055-.888.923.923,0,0,0-.163-.368.294.294,0,0,1,0-.3.378.378,0,0,1,.272-.082q.491.082,1.3.246c.535.109.977.209,1.322.3a.337.337,0,0,1,.219.354.27.27,0,0,1-.3.273,2.518,2.518,0,0,0-.587.122q-.286.1-.286.5V9.263h4.527v-6.3a6.232,6.232,0,0,0-.04-.887.816.816,0,0,0-.15-.369q-.109-.19,0-.3a.378.378,0,0,1,.272-.082q.491.082,1.282.246t1.309.3q.271.081.218.326,0,.247-.3.3a3.211,3.211,0,0,0-.559.109c-.192.055-.286.228-.286.518V9.263h4.282v-6.3a6.052,6.052,0,0,0-.041-.887.806.806,0,0,0-.15-.369.3.3,0,0,1,0-.3.381.381,0,0,1,.273-.082c.326.055.759.137,1.3.246s.978.209,1.323.3a.317.317,0,0,1,.219.326.329.329,0,0,1-.3.3,3.224,3.224,0,0,0-.586.109q-.286.082-.286.518c0,.165,0,.546.014,1.147s.018,1.336.028,2.209.013,1.8.013,2.782h2.373a.839.839,0,0,0,.232-.027.351.351,0,0,0,.177-.137q.163-.19.5-.627t.478-.6c.127-.183.3-.2.518-.055a5,5,0,0,1,.573.45c.236.21.478.419.722.628s.423.368.532.478a.5.5,0,0,1,.164.478.285.285,0,0,1-.3.259H78.388q.028,1.473.041,2.917t.027,2.659q.014,1.214.028,1.991t.013.915c0,.163-.146.313-.435.45a2.094,2.094,0,0,1-.9.2c-.382,0-.573-.154-.573-.464V17.772H72.307v1.882c0,.146-.15.29-.451.437a2.068,2.068,0,0,1-.914.218q-.573,0-.573-.491,0-.108.027-1t.069-2.277q.04-1.391.067-3.069t.027-3.368H66.033V22.164H79.425a.408.408,0,0,0,.3-.109,5.035,5.035,0,0,1,.34-.382c.174-.182.345-.368.519-.558s.286-.314.341-.369a.318.318,0,0,1,.49-.027,4.756,4.756,0,0,1,.587.463q.368.329.75.641c.255.21.436.368.545.478a.467.467,0,0,1,.138.451.286.286,0,0,1-.3.259h-17.1v1.336q0,.217-.436.436a2,2,0,0,1-.9.218m7.61-8.045H76.59V10.109H72.307Z" transform="translate(-6.038 -0.133)" fill="#302d2c"/>
          <path id="Path_134" data-name="Path 134" d="M63.277,62.113c-.365,0-.546-.155-.546-.463q0-.055.028-1t.067-2.509q.04-1.569.083-3.533t.067-4.1Q63,48.367,63,46.322q0-2.018-.027-3.1T62.9,41.657a2.349,2.349,0,0,0-.191-.764.239.239,0,0,1,.055-.3.253.253,0,0,1,.3-.027,5.511,5.511,0,0,1,.573.314c.254.155.522.313.8.478s.5.29.668.382H79.778a.4.4,0,0,0,.3-.11c.128-.145.278-.323.451-.532s.314-.378.423-.505a.376.376,0,0,1,.232-.136.6.6,0,0,1,.286.136,3.865,3.865,0,0,1,.546.424q.353.314.71.627c.235.21.408.369.518.478.2.2.172.364-.083.491a4.115,4.115,0,0,1-.408.2c-.146.064-.291.133-.436.205a.426.426,0,0,0-.165.136.75.75,0,0,0-.054.355v3q0,1.746.027,3.668t.082,3.764q.055,1.84.1,3.368t.068,2.5q.027.967.027,1.1c0,.164-.146.331-.436.5a2.048,2.048,0,0,1-1.063.259c-.365,0-.546-.146-.546-.436V59.986H64.8v1.5q0,.217-.45.423a2.585,2.585,0,0,1-1.077.2M64.8,50.358h6.874V42.584H64.8Zm0,8.81h6.874V51.176H64.8Zm8.674-8.81h6.874V42.584H73.479Zm0,8.81h6.874V51.176H73.479Z" transform="translate(-6.309 -4.073)" fill="#302d2c"/>
          <path id="Path_135" data-name="Path 135" d="M59.706,92.365a.369.369,0,0,1-.231-.2.293.293,0,0,1,.013-.287,30.506,30.506,0,0,0,2.782-1.786q1.555-1.1,3.15-2.469a31.2,31.2,0,0,0,2.945-2.864,16.425,16.425,0,0,0,2.169-2.972,2.511,2.511,0,0,0,.272-.723c.036-.21.064-.378.082-.505.018-.218.063-.344.136-.381a.248.248,0,0,1,.273,0c.2.091.464.219.791.381l.982.491q.491.246.764.409a.26.26,0,0,1,.137.382.276.276,0,0,1-.354.218L73.453,82a13.855,13.855,0,0,0,2.74,3.219,16.216,16.216,0,0,0,3.192,2.14,19.266,19.266,0,0,0,3.164,1.282,23.749,23.749,0,0,0,2.6.64,5.6,5.6,0,0,0-1.472.928,3.821,3.821,0,0,0-.928,1.118,25.785,25.785,0,0,1-3.3-1.747,18.521,18.521,0,0,1-3.6-2.945,17.8,17.8,0,0,1-3.109-4.5l-.055.055a23.118,23.118,0,0,1-2.973,3.4,38.7,38.7,0,0,1-3.491,2.932,36.318,36.318,0,0,1-3.5,2.318,27.024,27.024,0,0,1-3.015,1.527m.546-7.392a.346.346,0,0,1-.3-.49q.818-.546,1.895-1.4T64,81.209a23.019,23.019,0,0,0,1.924-2.018,9.265,9.265,0,0,0,1.254-1.855,1.936,1.936,0,0,0,.246-.817.316.316,0,0,1,.137-.327.264.264,0,0,1,.273.054c.2.109.453.264.763.464s.61.395.9.586l.683.45a.254.254,0,0,1,.082.382c-.073.182-.192.246-.355.191a1.172,1.172,0,0,0-.654-.109,1.116,1.116,0,0,0-.546.409A25.718,25.718,0,0,1,66.2,81,34.264,34.264,0,0,1,63.156,83.3a22.434,22.434,0,0,1-2.9,1.677M66.17,100.63c-.4,0-.6-.137-.6-.409q0-.246.055-1.323t.1-2.659q.04-1.581.041-3.274a19.479,19.479,0,0,0-.083-2.168,3.527,3.527,0,0,0-.218-.941.239.239,0,0,1,.054-.3.261.261,0,0,1,.3-.027c.127.054.323.155.586.3s.541.3.833.45.535.286.736.4h7.991a.407.407,0,0,0,.3-.11c.109-.126.264-.3.463-.532s.345-.386.437-.478a.464.464,0,0,1,.231-.149.566.566,0,0,1,.314.122c.091.054.263.183.518.382s.514.4.778.6a6.177,6.177,0,0,1,.559.463q.353.328-.082.546a3.706,3.706,0,0,1-.382.219l-.436.218a.49.49,0,0,0-.164.123.644.644,0,0,0-.056.341q0,1.2.029,2.387t.082,2.2q.054,1.009.081,1.649c.018.428.028.678.028.751,0,.164-.142.341-.423.532a2,2,0,0,1-1.132.287c-.364,0-.545-.147-.545-.437v-.927h-8.92v1.065q0,.217-.423.463a2.066,2.066,0,0,1-1.05.246m1.473-2.591h8.92V91.492h-8.92ZM81.608,82.928q-.519.273-1.173-.6a15.3,15.3,0,0,0-2.823-3.015,17.747,17.747,0,0,0-3.259-2.14.376.376,0,0,1-.013-.328.292.292,0,0,1,.232-.191,24.1,24.1,0,0,1,2.591.887,19.142,19.142,0,0,1,2.59,1.268,6.319,6.319,0,0,1,1.828,1.528,2.333,2.333,0,0,1,.532,1.541,1.2,1.2,0,0,1-.5,1.05" transform="translate(-5.984 -7.668)" fill="#302d2c"/>
          <path id="Path_136" data-name="Path 136" d="M64.46,138.5q-.573,0-.573-.464,0-.136.04-.954t.083-2.059q.04-1.24.082-2.7t.04-2.85V125.6a28.815,28.815,0,0,1-2.073,4.173,23.126,23.126,0,0,1-2.373,3.3q-.436.055-.436-.355A30.656,30.656,0,0,0,61,129.487q.9-1.9,1.691-4.1a32.691,32.691,0,0,0,1.255-4.473H61.677a9.129,9.129,0,0,0-1.445.137l-.219-1.2a7.887,7.887,0,0,0,1.664.245h2.455v-4.609a2.9,2.9,0,0,0-.191-1.282.2.2,0,0,1,0-.3.308.308,0,0,1,.272-.054q.41.081,1.159.259c.5.119.924.222,1.269.313a.318.318,0,0,1,.219.327.27.27,0,0,1-.3.272,2.609,2.609,0,0,0-.586.123q-.287.1-.287.5v4.445h1.119a.416.416,0,0,0,.3-.136c.092-.109.232-.268.424-.478s.322-.35.395-.423a.325.325,0,0,1,.518-.028,5.7,5.7,0,0,1,.655.559q.382.368.656.614a.461.461,0,0,1,.15.464.287.287,0,0,1-.288.245H65.687V123.8c.019,0,.027,0,.027-.014s.01-.013.029-.013a17.073,17.073,0,0,1,1.745.968,6.378,6.378,0,0,1,1.665,1.433h3.981q.546-1.091.941-1.937t.505-1.173a3.679,3.679,0,0,0,.218-1.2q-.028-.41.109-.491a.246.246,0,0,1,.273,0q.272.136.709.395t.887.518q.449.26.723.424a.273.273,0,0,1,.109.382.309.309,0,0,1-.382.191.945.945,0,0,0-.613-.014,1.272,1.272,0,0,0-.45.478q-.111.192-.451.86t-.8,1.568h6.219a.321.321,0,0,0,.273-.109q.135-.165.518-.6c.254-.291.427-.491.518-.6a.33.33,0,0,1,.491,0,6.451,6.451,0,0,1,.817.668c.345.317.6.559.764.723a.537.537,0,0,1,.177.5.334.334,0,0,1-.369.231H80.8a18.627,18.627,0,0,1-1.173,3.437,16.277,16.277,0,0,1-1.582,2.727,30.454,30.454,0,0,1,2.864,1.269,10.76,10.76,0,0,1,2.1,1.349,1.536,1.536,0,0,1,.586.9,2.176,2.176,0,0,1,.013,1,.8.8,0,0,1-.409.586.632.632,0,0,1-.546-.028,4.829,4.829,0,0,1-.736-.573q-1.064-.927-2.265-1.8a27.515,27.515,0,0,0-2.536-1.637,11.256,11.256,0,0,1-4.527,2.933,20.088,20.088,0,0,1-5.756,1.05.4.4,0,0,1-.137-.287.354.354,0,0,1,.11-.259,20.73,20.73,0,0,0,5.2-1.432,10.374,10.374,0,0,0,3.722-2.74q-.873-.437-1.813-.8a18.893,18.893,0,0,0-1.951-.641q-.246.518-.409.873c-.11.237-.191.4-.246.491-.054.146-.25.228-.586.245a2.054,2.054,0,0,1-.859-.109q-.6-.273-.328-.683a12.992,12.992,0,0,0,.723-1.227q.5-.927,1.174-2.168t1.3-2.469h-3.11a2.1,2.1,0,0,1,0,1.255,1.014,1.014,0,0,1-.709.764.473.473,0,0,1-.5-.137,3.148,3.148,0,0,1-.478-.9,10.9,10.9,0,0,0-.954-1.965,6.912,6.912,0,0,0-1.282-1.554v5.019q0,1.5.027,2.918t.041,2.6q.013,1.187.041,1.937c.018.5.027.8.027.914q0,.245-.451.45a2.178,2.178,0,0,1-.913.205m7.882-16.883a.693.693,0,0,1-.49-.068,1.093,1.093,0,0,1-.382-.641,19.356,19.356,0,0,0-1.077-2.686,8.137,8.137,0,0,0-1.622-2.3c-.037-.29.082-.436.353-.436a7.18,7.18,0,0,1,1.514.941,9.73,9.73,0,0,1,1.418,1.378A5.458,5.458,0,0,1,73,119.356a1.975,1.975,0,0,1,.068,1.486,1.19,1.19,0,0,1-.723.778m4.091,10.965a17.081,17.081,0,0,0,2.346-5.592H74.5q-.572,1.091-1.158,2.278t-1.05,2.141q2.018.464,4.145,1.173m0-12.247a.8.8,0,0,1-.463-.1c-.164-.082-.272-.3-.327-.668a10.421,10.421,0,0,0-.737-2.646,9.035,9.035,0,0,0-1.309-2.21.381.381,0,0,1,.122-.3.326.326,0,0,1,.286-.081,7.533,7.533,0,0,1,1.406.995,8.207,8.207,0,0,1,1.227,1.35,4.337,4.337,0,0,1,.722,1.528,2.082,2.082,0,0,1-.067,1.446,1.1,1.1,0,0,1-.86.681m2.183,3.765c-.273.055-.436-.037-.491-.273q.355-.627.8-1.6t.9-2.086q.449-1.12.791-2.224a11.791,11.791,0,0,0,.45-1.977c.018-.2.028-.372.028-.519a2.357,2.357,0,0,0-.028-.381c-.037-.219-.018-.355.055-.409a.29.29,0,0,1,.3,0c.2.073.481.187.844.34s.723.31,1.078.464.613.278.777.369a.312.312,0,0,1,.164.381.222.222,0,0,1-.122.177.51.51,0,0,1-.205.041,1.6,1.6,0,0,0-.586.04.629.629,0,0,0-.341.369q-.546,1.228-1.323,2.632t-1.6,2.646a17.658,17.658,0,0,1-1.5,2" transform="translate(-5.964 -11.46)" fill="#302d2c"/>
          <path id="Path_137" data-name="Path 137" d="M66.22,176.335q-.6,0-.6-.464c0-.092.008-.378.027-.859s.036-1.073.054-1.773.037-1.432.055-2.2.027-1.463.027-2.1a21.594,21.594,0,0,1-1.649,2.25q-.942,1.132-1.936,2.113t-1.869,1.746c-.29-.036-.418-.174-.381-.408q.544-.629,1.282-1.568t1.527-2.06q.792-1.12,1.487-2.319a18.526,18.526,0,0,0,1.159-2.345H62.565a9.036,9.036,0,0,0-1.445.136l-.218-1.173a9.4,9.4,0,0,0,1.663.219h3.218v-1.2a2.862,2.862,0,0,0-.191-1.282.2.2,0,0,1,0-.3.315.315,0,0,1,.273-.054q.463.081,1.2.246t1.228.3a.319.319,0,0,1,.218.327.329.329,0,0,1-.3.3,3.278,3.278,0,0,0-.585.11c-.192.055-.286.219-.286.491v1.064H69.93a.407.407,0,0,0,.3-.109c.09-.11.231-.269.422-.478s.331-.359.423-.45a.347.347,0,0,1,.518-.028q.247.192.641.558t.641.641a.443.443,0,0,1,.15.451.282.282,0,0,1-.286.232h-5.4v1.118a12.357,12.357,0,0,1,1.486.627,11.461,11.461,0,0,1,1.6.955,4.49,4.49,0,0,1,1.2,1.228,1.361,1.361,0,0,1,.178,1.214,1.147,1.147,0,0,1-.532.75.507.507,0,0,1-.382.013.945.945,0,0,1-.409-.45,9.936,9.936,0,0,0-1.391-2,10.649,10.649,0,0,0-1.745-1.623v.6q0,.954.027,2.086t.055,2.168q.026,1.036.054,1.773c.018.491.027.791.027.9,0,.146-.136.287-.409.423a1.93,1.93,0,0,1-.872.205M60.247,162.4,60,161.224a9.571,9.571,0,0,0,1.663.219h5.892a19.435,19.435,0,0,0,.7-1.909,11.919,11.919,0,0,0,.45-1.882,1.951,1.951,0,0,0,.041-.478c-.009-.118-.013-.213-.013-.286-.019-.127,0-.21.054-.246a.245.245,0,0,1,.272-.054c.165.073.39.167.683.286s.576.237.859.354.486.2.613.259a.313.313,0,0,1,.164.381.277.277,0,0,1-.355.219.659.659,0,0,0-.381,0,.758.758,0,0,0-.3.353,14.638,14.638,0,0,1-.942,1.528q-.587.846-1.05,1.473h2.291a.318.318,0,0,0,.272-.11q.136-.163.464-.5t.464-.478a.319.319,0,0,1,.491-.027q.244.192.7.6t.668.628a.48.48,0,0,1,.177.477.315.315,0,0,1-.341.232H61.692a9.239,9.239,0,0,0-1.445.137m.764-5.864-.219-1.2a9.526,9.526,0,0,0,1.665.218h3.327v-2.209a4.308,4.308,0,0,0-.054-.777,1.539,1.539,0,0,0-.164-.478.521.521,0,0,1-.027-.164.291.291,0,0,1,.054-.164c.036-.073.128-.091.273-.054q.436.054,1.2.232c.508.119.918.222,1.228.313a.319.319,0,0,1,.218.327.269.269,0,0,1-.3.273,2.612,2.612,0,0,0-.585.123c-.192.064-.286.232-.286.5v2.072H69.93a.319.319,0,0,0,.273-.109q.136-.135.463-.491t.464-.491q.19-.244.49-.027.247.192.7.6t.668.628a.494.494,0,0,1,.177.491.316.316,0,0,1-.341.245H62.456a9.015,9.015,0,0,0-1.445.137m3.9,4.664a.524.524,0,0,1-.737-.382,9.452,9.452,0,0,0-.641-1.868,6.248,6.248,0,0,0-1.077-1.678.351.351,0,0,1,.094-.313.4.4,0,0,1,.287-.123,7.062,7.062,0,0,1,1.664,1.105,3.441,3.441,0,0,1,1.037,1.4,1.481,1.481,0,0,1,.068,1.214,1.1,1.1,0,0,1-.7.641m15.083,14.974q-.519,0-.519-.436V162.043H76.393a21.034,21.034,0,0,1-1.623,8.442,11.65,11.65,0,0,1-4.977,5.55.443.443,0,0,1-.272-.191.371.371,0,0,1-.055-.273,11.657,11.657,0,0,0,3.027-3.518,15.744,15.744,0,0,0,1.665-4.9,37.728,37.728,0,0,0,.518-6.669q0-2.1-.027-3.355t-.11-1.951a3.73,3.73,0,0,0-.272-1.1c-.037-.127-.019-.218.054-.272a.215.215,0,0,1,.3-.027l.573.286q.409.2.845.45t.71.409a22.716,22.716,0,0,0,2.413-1.1,12.342,12.342,0,0,0,1.9-1.186,2.191,2.191,0,0,0,.531-.546.666.666,0,0,1,.232-.273c.073-.055.165-.036.273.055a7.051,7.051,0,0,1,.614.477c.245.21.494.424.75.641s.453.4.6.545a.242.242,0,0,1,.054.382.323.323,0,0,1-.409.136,2.21,2.21,0,0,0-.573-.231.875.875,0,0,0-.518.1,28.684,28.684,0,0,1-3.054,1.009q-1.692.465-3.165.764v5.536h5.018a.363.363,0,0,0,.3-.136q.136-.138.518-.573c.255-.291.427-.491.519-.6a.33.33,0,0,1,.49,0,6.419,6.419,0,0,1,.8.655c.336.309.6.556.777.737a.6.6,0,0,1,.165.5c-.037.155-.155.232-.355.232H81.112q0,1.31.027,3.014t.082,3.451q.054,1.744.109,3.273c.036,1.018.065,1.854.082,2.509s.027,1.018.027,1.091c0,.145-.145.314-.435.505a1.8,1.8,0,0,1-1.009.286" transform="translate(-6.034 -15.269)" fill="#302d2c"/>
          <path id="Path_138" data-name="Path 138" d="M76.96,214.3a5.339,5.339,0,0,0-.709-1.432,2.27,2.27,0,0,0-1.01-.75,6.7,6.7,0,0,0-1.718-.354q-.244-.355.082-.546.273,0,.915.04c.426.028.89.055,1.389.082s.942.041,1.324.041a.966.966,0,0,0,.613-.15.747.747,0,0,0,.177-.585V194.412H72.433q0,2.4.028,4.787t.081,4.337q.054,1.951.082,3.164c.019.808.027,1.241.027,1.3q0,.219-.395.464a1.751,1.751,0,0,1-.942.246q-.518,0-.518-.409v-1.527H63.459v2.046c0,.127-.128.272-.381.436a1.681,1.681,0,0,1-.927.245c-.328,0-.491-.154-.491-.463q0-.136.013-1.05t.041-2.346q.027-1.431.055-3.11t.041-3.4q.013-1.717.013-3.164,0-1.527-.013-2.441t-.056-1.419a6.077,6.077,0,0,0-.094-.75,2.442,2.442,0,0,0-.138-.436.285.285,0,0,1,.056-.3.249.249,0,0,1,.3-.027l.873.477q.572.313.927.532h6.545a.487.487,0,0,0,.355-.11c.09-.091.213-.209.368-.354s.295-.281.424-.409a.394.394,0,0,1,.572,0q.272.219.778.668c.336.3.567.514.7.641q.326.382-.109.546c-.129.054-.232.1-.315.136s-.194.092-.341.164a.4.4,0,0,0-.163.137.731.731,0,0,0-.055.354v.191h8.673a.721.721,0,0,0,.219-.027.362.362,0,0,0,.164-.137q.163-.217.5-.64t.477-.614a.347.347,0,0,1,.519-.027,5.552,5.552,0,0,1,.586.45c.246.209.487.419.723.627s.409.369.518.478a.5.5,0,0,1,.163.477.284.284,0,0,1-.3.259H79.8v4.337q0,2.346.027,4.445t.055,3.75q.026,1.651.054,2.659t.027,1.2a3.346,3.346,0,0,1-.641,2.128A4.782,4.782,0,0,1,76.96,214.3m-13.5-15.52h2.783v-6.328H63.459Zm0,7.174h2.783v-6.355H63.459Zm4.445-7.174H70.8v-6.328H67.9Zm0,7.174H70.8v-6.355H67.9Z" transform="translate(-6.191 -19.182)" fill="#302d2c"/>
          <path id="Path_139" data-name="Path 139" d="M78.348,250.293a12.72,12.72,0,0,1-4.855-.395,6.014,6.014,0,0,1-3.274-2.3,7.68,7.68,0,0,1-1.172-4.5,11.294,11.294,0,0,1,1.3-5.592,11.952,11.952,0,0,1,3.2-3.763,33.129,33.129,0,0,0-3.395.79,38.29,38.29,0,0,0-3.668,1.282,9.794,9.794,0,0,0-1.119.5,2.47,2.47,0,0,1-1.146.315,1.856,1.856,0,0,1-1.35-.519,3.227,3.227,0,0,1-.791-1.241,6.515,6.515,0,0,1-.341-1.323.354.354,0,0,1,.545-.191,1.493,1.493,0,0,0,.668.764,2.682,2.682,0,0,0,1.268.246,11.537,11.537,0,0,0,1.964-.232q1.255-.232,2.877-.6t3.464-.777q1.841-.41,3.722-.777t3.629-.614a6.18,6.18,0,0,1,.831-.082.892.892,0,0,1,.559.218,2.429,2.429,0,0,1,.887,1.01.777.777,0,0,1-.041.818,1,1,0,0,1-.926.218q-1.01-.136-2.223-.232a11.343,11.343,0,0,0-2.415.068,4.928,4.928,0,0,0-2.181.846,7.108,7.108,0,0,0-2.933,3.654,14.914,14.914,0,0,0-.723,5.183,4.809,4.809,0,0,0,1.9,4.145,7.5,7.5,0,0,0,5.168.927,1.478,1.478,0,0,1,.463-.027.857.857,0,0,1,.381.218q1.037.846.818,1.364c-.146.346-.509.545-1.091.6m1.446-9.055a.866.866,0,0,1-.478-.15.959.959,0,0,1-.341-.614,11.132,11.132,0,0,0-.682-2,5.076,5.076,0,0,0-1.309-1.731c-.037-.291.082-.437.354-.437a5.97,5.97,0,0,1,2.741,2.1,3.038,3.038,0,0,1,.558,1.418,1.43,1.43,0,0,1-.245,1.023.811.811,0,0,1-.6.4m3.328-1.664a.937.937,0,0,1-.491-.083,1.093,1.093,0,0,1-.464-.545,10.083,10.083,0,0,0-1.037-1.773,6.106,6.106,0,0,0-1.663-1.5c-.074-.273.017-.436.272-.491a8.175,8.175,0,0,1,1.637.6,6.694,6.694,0,0,1,1.5.982,2.442,2.442,0,0,1,.818,1.255,1.468,1.468,0,0,1-.055,1.05q-.219.451-.518.505" transform="translate(-6.215 -23.282)" fill="#302d2c"/>
          <path id="Path_140" data-name="Path 140" d="M.364,24.74a.372.372,0,0,1-.231-.205.347.347,0,0,1-.013-.286,24.12,24.12,0,0,0,6.2-5.183,20.225,20.225,0,0,0,3.765-6.955,30.244,30.244,0,0,0,1.268-9.164,4.591,4.591,0,0,0-.055-.8,3.344,3.344,0,0,0-.11-.451c-.055-.145-.062-.245-.026-.3.017-.091.108-.119.272-.082q.274.054.887.205t1.255.3c.426.1.758.187.995.259.183.054.255.2.219.436q-.028.355-.3.355a3.334,3.334,0,0,0-1.036.15.448.448,0,0,0-.3.45,26.086,26.086,0,0,0,.737,6.56,18.9,18.9,0,0,0,1.935,4.855,15.928,15.928,0,0,0,2.619,3.4,16.251,16.251,0,0,0,2.783,2.2,15.977,15.977,0,0,0,2.441,1.255q1.078.424,1.568.587a6.057,6.057,0,0,0-1.6.791,4.022,4.022,0,0,0-1.077,1.009,18.306,18.306,0,0,1-1.649-.982A16.793,16.793,0,0,1,18.639,21.3,18.2,18.2,0,0,1,16.2,18.425a19.191,19.191,0,0,1-2.14-4.146,24.238,24.238,0,0,1-1.338-5.6,21.278,21.278,0,0,1-4.062,9.819A21.324,21.324,0,0,1,.364,24.74" transform="translate(-0.01 -0.13)" fill="#302d2c"/>
          <path id="Path_141" data-name="Path 141" d="M.492,61.354.274,60.182a9.5,9.5,0,0,0,1.663.218h9.574V53.472H5.047a9.406,9.406,0,0,0-1.472.137l-.219-1.173a9.5,9.5,0,0,0,1.664.218h6.491V46.435H5.593a28.249,28.249,0,0,1-2.006,3.45,32.822,32.822,0,0,1-2.44,3.15.34.34,0,0,1-.437-.327,31.368,31.368,0,0,0,2-3.614,39.833,39.833,0,0,0,1.65-4.009,23.651,23.651,0,0,0,1.009-3.8,3.926,3.926,0,0,0,.054-.587v-.341a.41.41,0,0,1,.056-.327c.036-.054.118-.063.245-.027h.028q.272.109.8.327t1.077.45c.364.156.636.278.818.369a.313.313,0,0,1,.164.381.337.337,0,0,1-.354.219,1.679,1.679,0,0,0-.613,0c-.119.037-.214.155-.287.355a31.622,31.622,0,0,1-1.39,3.518h5.536V41.581a12.942,12.942,0,0,0-.082-1.678,2.023,2.023,0,0,0-.273-.86.232.232,0,0,1,0-.3.313.313,0,0,1,.273-.054c.2.036.491.094.873.177s.767.168,1.158.259.687.164.887.218c.181.019.254.128.218.328,0,.182-.1.272-.3.272a2.655,2.655,0,0,0-.559.123q-.286.1-.286.505v5.045h5.973a.423.423,0,0,0,.3-.136l1.227-1.255a.345.345,0,0,1,.491-.027,10.98,10.98,0,0,1,.927.764q.545.491.818.764a.5.5,0,0,1,.15.478.282.282,0,0,1-.287.232h-9.6v6.218h5.127a.416.416,0,0,0,.3-.136L20.1,51.262a.331.331,0,0,1,.491,0,11.2,11.2,0,0,1,.927.764q.545.491.818.764a.441.441,0,0,1,.15.45.3.3,0,0,1-.314.231H13.42V60.4h6.9a.319.319,0,0,0,.272-.109l.381-.381q.3-.3.587-.6c.191-.2.3-.318.341-.355a.383.383,0,0,1,.491-.027c.09.054.29.2.6.436s.613.469.914.7.486.377.558.45a.446.446,0,0,1,.165.451c-.037.172-.128.259-.273.259H1.965a9.106,9.106,0,0,0-1.473.136" transform="translate(-0.028 -3.894)" fill="#302d2c"/>
          <path id="Path_142" data-name="Path 142" d="M13.2,99.534A11.033,11.033,0,0,1,9,98.852,2.587,2.587,0,0,1,7.255,96.5a2.674,2.674,0,0,1,.7-2.059,11.074,11.074,0,0,1,2.032-1.7q.491-.329,1.2-.765t1.527-.926a8.106,8.106,0,0,0-.342-1.773,3.487,3.487,0,0,0-.722-1.322,1.586,1.586,0,0,0-1.228-.505,3.662,3.662,0,0,0-1.854.519,6.725,6.725,0,0,0-1.623,1.309A10.806,10.806,0,0,0,5.7,90.915q-.436.791-.817.8c-.255.01-.518-.168-.791-.533a1.094,1.094,0,0,1-.245-1.063,2.579,2.579,0,0,1,.627-.845,17.466,17.466,0,0,0,1.541-1.649q.832-1,1.677-2.183t1.556-2.386q-.437.027-.888.027H7.5a2.6,2.6,0,0,1-2.154-.764,3.04,3.04,0,0,1-.6-1.936.336.336,0,0,1,.545-.083,1.3,1.3,0,0,0,.737,1.133,4.137,4.137,0,0,0,1.472.23q.6,0,1.282-.04t1.363-.15q.219-.409.409-.818c.127-.272.237-.527.327-.764a1.851,1.851,0,0,0,.1-1.39,1.486,1.486,0,0,0-1.05-.846.342.342,0,0,1,.109-.545,5.964,5.964,0,0,1,1.391.26,6.074,6.074,0,0,1,1.309.531.926.926,0,0,1,.5.723.834.834,0,0,1-.314.75,3.166,3.166,0,0,0-.409.436c-.127.165-.236.318-.326.463-.073.128-.156.273-.246.438s-.191.335-.3.517a6.861,6.861,0,0,0,1.445-.408,1.51,1.51,0,0,1,.559-.109,1.376,1.376,0,0,1,.723.3c.418.29.614.572.586.844a.628.628,0,0,1-.532.547,10.684,10.684,0,0,1-1.568.314q-1.05.151-2.25.232Q9.846,84.2,9.069,85.459T7.746,87.533A5.613,5.613,0,0,1,9,86.783a3.6,3.6,0,0,1,1.473-.314,3.022,3.022,0,0,1,2.073.7A4.7,4.7,0,0,1,13.774,88.9a9.6,9.6,0,0,1,1.254-2.372,6.689,6.689,0,0,1,1.855-1.759,4.38,4.38,0,0,1,2.373-.667,4.818,4.818,0,0,1,2.168.409,2.449,2.449,0,0,1,1.1.967,1.355,1.355,0,0,1,.137,1.077,1.222,1.222,0,0,1-.764.764q-.871.353-2.113.982t-2.631,1.4q-1.392.778-2.756,1.6a14.542,14.542,0,0,1,.219,2.141c.018.7.028,1.259.028,1.678a1.185,1.185,0,0,1-.382.953,1.233,1.233,0,0,1-.818.328.633.633,0,0,1-.559-.218,1.046,1.046,0,0,1-.149-.6v-.314a3.72,3.72,0,0,1,.027-.423q0-.491.027-1.159t0-1.378q-.629.383-1.174.764l-1.009.71a3.781,3.781,0,0,0-1.118,1.159,2.259,2.259,0,0,0-.245,1.268,1.47,1.47,0,0,0,1.213,1.269,12.082,12.082,0,0,0,2.959.287,16.591,16.591,0,0,0,2.551-.192,13.206,13.206,0,0,0,1.923-.408,2.051,2.051,0,0,1,.545-.109,1.456,1.456,0,0,1,.519.136q1.145.518,1.173,1.05c.018.354-.209.6-.682.75a15.083,15.083,0,0,1-2.7.409q-1.719.136-3.546.138m.982-9.385q1.364-.79,2.741-1.594t2.495-1.488q1.009-.627.955-1.255T19.2,85.185a3.784,3.784,0,0,0-2.292.738,6.292,6.292,0,0,0-1.691,1.867,9.853,9.853,0,0,0-1.036,2.359" transform="translate(-0.381 -7.763)" fill="#302d2c"/>
          <path id="Path_143" data-name="Path 143" d="M.464,137.074a.425.425,0,0,1-.3-.054A.337.337,0,0,1,0,136.775,21.956,21.956,0,0,0,.887,134.7a26.007,26.007,0,0,0,.791-2.5,13.374,13.374,0,0,0,.424-2.441,2.467,2.467,0,0,0,0-.5,2.538,2.538,0,0,1-.027-.341.561.561,0,0,1,0-.354.29.29,0,0,1,.326-.028q.41.138,1.065.368t1.009.369c.163.054.208.173.136.354q-.082.272-.327.218a.526.526,0,0,0-.423.056.784.784,0,0,0-.232.463,16.629,16.629,0,0,1-.832,2.6,19.623,19.623,0,0,1-1.146,2.36,12.3,12.3,0,0,1-1.186,1.745m5.264,1.419q-.6,0-.6-.491,0-.109.027-.818t.069-1.746q.04-1.036.067-2.2t.027-2.2V126.52q-.791.109-1.514.232t-1.24.176a.729.729,0,0,0-.519.192.69.69,0,0,0-.054.573.325.325,0,0,1-.219.354.313.313,0,0,1-.382-.164c-.073-.181-.182-.427-.326-.737s-.292-.618-.437-.927-.264-.554-.354-.737A.215.215,0,0,1,.3,125.21q.054-.054.409.027c.109.019.232.041.368.069a2.493,2.493,0,0,0,.478.04c.308.019.672.028,1.09.028H3.983q.461-.656,1.091-1.65t1.268-2.113q.639-1.118,1.172-2.168a11.582,11.582,0,0,0,.778-1.869,1.592,1.592,0,0,0,.1-.668.245.245,0,0,1,.1-.287c.054-.036.145-.027.272.028q.383.192,1.092.613c.473.282.853.514,1.146.7.163.073.191.2.081.382a.259.259,0,0,1-.354.163h-.055a1.5,1.5,0,0,0-.518-.067q-.244.013-.463.395-.573,1.009-1.432,2.223T6.492,123.4q-.9,1.13-1.61,1.949,1.145-.054,2.264-.109t1.937-.136a10.6,10.6,0,0,0-1.255-1.882q0-.436.382-.436a12.737,12.737,0,0,1,1.841,1.35,4.479,4.479,0,0,1,1.269,1.786,1.672,1.672,0,0,1,.04,1.268,1.126,1.126,0,0,1-.614.669.514.514,0,0,1-.477-.013.969.969,0,0,1-.341-.559,5.3,5.3,0,0,0-.232-.777q-.15-.4-.341-.8l-1.159.245q-.641.138-1.351.273v4.828q0,.982.028,2.1t.04,2.128q.013,1.01.041,1.7c.018.464.028.751.028.86,0,.164-.133.314-.4.45a1.847,1.847,0,0,1-.859.205M4.391,122.21a.663.663,0,0,1-.491.027q-.219-.081-.354-.518a11.027,11.027,0,0,0-1.213-2.331,9.7,9.7,0,0,0-1.65-1.815.365.365,0,0,1,.354-.464,13.691,13.691,0,0,1,1.3.71,9.868,9.868,0,0,1,1.132.819q.461-.792.968-1.842a12.525,12.525,0,0,0,.75-1.9,2.026,2.026,0,0,0,.109-.722c-.019-.174.009-.287.082-.341a.244.244,0,0,1,.272,0q.246.136.668.409c.282.182.563.359.846.532s.495.3.64.395a.322.322,0,0,1,.11.382.282.282,0,0,1-.382.164,1.04,1.04,0,0,0-.518-.068.688.688,0,0,0-.382.341,15.993,15.993,0,0,1-1.3,1.705q-.723.832-1.35,1.432a3.611,3.611,0,0,1,.791,1.173,1.778,1.778,0,0,1,.1,1.227,1.052,1.052,0,0,1-.478.683m6.246,12.028a.517.517,0,0,1-.463-.109,1.415,1.415,0,0,1-.327-.709,14.444,14.444,0,0,0-.791-2.427,12.14,12.14,0,0,0-1.445-2.427c.036-.273.182-.391.436-.355a12.2,12.2,0,0,1,1.391,1.118,9.632,9.632,0,0,1,1.255,1.406,4.33,4.33,0,0,1,.737,1.568,1.828,1.828,0,0,1-.055,1.336,1.034,1.034,0,0,1-.737.6m6.3,4.092a2.679,2.679,0,0,0-.832-1.555,6.045,6.045,0,0,0-2.141-.954q-.19-.382.164-.546c.146.037.428.1.845.191s.891.174,1.419.246a10.96,10.96,0,0,0,1.5.11,1.593,1.593,0,0,0,1.05-.478,4.416,4.416,0,0,0,1-1.623,14.755,14.755,0,0,0,.777-3.15,40.849,40.849,0,0,0,.4-5.059H16.883a24.521,24.521,0,0,1-1.268,5.4,13.176,13.176,0,0,1-2.509,4.227,13.393,13.393,0,0,1-4.3,3.11q-.382-.192-.246-.518a12.09,12.09,0,0,0,3.859-3.7,16.884,16.884,0,0,0,2.25-5.55,42.258,42.258,0,0,0,.928-7.938H12.11a9.681,9.681,0,0,0-1.5.164l-.246-1.228a9.847,9.847,0,0,0,1.746.246h3.927v-2.481q0-1.2-.055-1.937a2.534,2.534,0,0,0-.218-1.009.233.233,0,0,1,0-.3.313.313,0,0,1,.273-.054q.3.055.791.163t.982.232c.327.082.59.15.791.205q.272.081.219.327c0,.164-.1.264-.3.3a2.408,2.408,0,0,0-.518.11q-.246.082-.246.518v3.927h3.109a.415.415,0,0,0,.3-.137q.082-.081.314-.368c.154-.191.313-.382.477-.573s.264-.313.3-.368c.128-.146.29-.155.491-.027a3.522,3.522,0,0,1,.573.436l.8.7c.264.227.433.376.505.45a.445.445,0,0,1,.163.45c-.037.173-.127.259-.272.259H17.265q-.027,1.091-.1,2.128t-.205,2.018h3.819a.317.317,0,0,0,.272-.109l.955-.955a.3.3,0,0,1,.491.028c.11.091.263.231.463.422s.4.378.614.559a4.4,4.4,0,0,1,.451.437.487.487,0,0,1,.149.313.208.208,0,0,1-.178.232,6.009,6.009,0,0,0-.926.382.316.316,0,0,0-.15.136,1.285,1.285,0,0,0-.068.355,46.538,46.538,0,0,1-.777,6.191,8.976,8.976,0,0,1-1.718,3.981,4.966,4.966,0,0,1-3.424,1.665" transform="translate(0 -11.455)" fill="#302d2c"/>
          <path id="Path_144" data-name="Path 144" d="M16.243,176.129a.747.747,0,0,1-.614.1,1.111,1.111,0,0,1-.5-.587q-.656-1.336-1.61-3.068a40.118,40.118,0,0,0-2.2-3.519,22.063,22.063,0,0,0-2.8-3.286q-.464-.491-.627-.709a1.263,1.263,0,0,1-.164-.737,1.372,1.372,0,0,1,.164-.763,5.148,5.148,0,0,1,.709-.927q.409-.437,1.146-1.282t1.6-1.882q.858-1.036,1.648-2.018t1.282-1.691a2.135,2.135,0,0,0,.45-1.473,1.7,1.7,0,0,0-.694-1.119.365.365,0,0,1,.353-.464,6.818,6.818,0,0,1,1.037.519,7.2,7.2,0,0,1,1.146.818,1.551,1.551,0,0,1,.477.627,1.1,1.1,0,0,1,.069.6,1.359,1.359,0,0,1-.409.668q-.328.314-.764.7-.6.518-1.486,1.418t-1.828,1.923L10.9,161.851q-.792.859-1.2,1.3a4.284,4.284,0,0,0-.464.6.978.978,0,0,0-.109.491,1.242,1.242,0,0,0,.163.531,5.027,5.027,0,0,0,.791.832q.737.656,1.678,1.65t1.909,2.127q.967,1.132,1.773,2.223a12.049,12.049,0,0,1,1.214,1.964,2.235,2.235,0,0,1,.218,1.514,1.575,1.575,0,0,1-.627,1.05m3.6-11.782a.72.72,0,0,1-.423-.014q-.178-.069-.286-.451a13.378,13.378,0,0,0-.778-2.141,6.189,6.189,0,0,0-1.322-1.895c-.037-.29.082-.437.353-.437a7.339,7.339,0,0,1,2.114,1.419,3.6,3.6,0,0,1,1.132,1.881,1.51,1.51,0,0,1-.1,1.05,1.112,1.112,0,0,1-.7.586m3.328-2.073a.774.774,0,0,1-.423.082c-.119-.018-.25-.145-.395-.382a11.582,11.582,0,0,0-1.2-1.923,6.264,6.264,0,0,0-1.718-1.568.374.374,0,0,1,.027-.313.324.324,0,0,1,.218-.178,7.04,7.04,0,0,1,2.386.928A3.728,3.728,0,0,1,23.58,160.5a1.549,1.549,0,0,1,.136,1.078,1.084,1.084,0,0,1-.545.7" transform="translate(-0.778 -15.371)" fill="#302d2c"/>
          <path id="Path_145" data-name="Path 145" d="M22.146,198.1a3.84,3.84,0,0,1-2-.545,4.148,4.148,0,0,1-1.46-1.46,3.881,3.881,0,0,1-.545-2.032,3.811,3.811,0,0,1,.545-2.018,4.183,4.183,0,0,1,1.46-1.445,3.833,3.833,0,0,1,2-.547,3.888,3.888,0,0,1,2.033.547,4.18,4.18,0,0,1,1.459,1.445,3.819,3.819,0,0,1,.545,2.018,3.889,3.889,0,0,1-.545,2.032,4.146,4.146,0,0,1-1.459,1.46,3.9,3.9,0,0,1-2.033.545m0-1.145a2.984,2.984,0,0,0,2.114-.833,2.8,2.8,0,0,0,0-4.091,2.987,2.987,0,0,0-2.114-.831,2.95,2.95,0,0,0-2.086.831,2.8,2.8,0,0,0,0,4.091,2.948,2.948,0,0,0,2.086.833" transform="translate(-1.826 -19.132)" fill="#302d2c"/>
        </g>
      </g>
    </g>
  </g>
</svg>
